<mxfile host="app.diagrams.net" agent="Mozilla/5.0 (Windows NT 10.0; Win64; x64) AppleWebKit/537.36 (KHTML, like Gecko) Chrome/136.0.0.0 Safari/537.36" version="27.0.9" pages="8">
  <diagram name="Museum UML" id="museum-complete">
    <mxGraphModel dx="1901" dy="2160" grid="1" gridSize="10" guides="1" tooltips="1" connect="1" arrows="1" fold="1" page="1" pageScale="1" pageWidth="827" pageHeight="1169" math="0" shadow="0">
      <root>
        <mxCell id="0" />
        <mxCell id="1" parent="0" />
        <mxCell id="2" value="&lt;div&gt;&lt;font style=&quot;&quot;&gt;&lt;b style=&quot;&quot;&gt;&lt;font style=&quot;font-size: 18px;&quot;&gt;&lt;br&gt;&lt;/font&gt;&lt;/b&gt;&lt;/font&gt;&lt;/div&gt;&lt;font style=&quot;&quot;&gt;&lt;b style=&quot;&quot;&gt;&lt;font style=&quot;font-size: 18px;&quot;&gt;&lt;div&gt;&lt;font style=&quot;&quot;&gt;&lt;b style=&quot;&quot;&gt;&lt;font style=&quot;font-size: 18px;&quot;&gt;&lt;br&gt;&lt;/font&gt;&lt;/b&gt;&lt;/font&gt;&lt;/div&gt;&lt;div&gt;&lt;font style=&quot;&quot;&gt;&lt;b style=&quot;&quot;&gt;&lt;font style=&quot;font-size: 18px;&quot;&gt;&lt;br&gt;&lt;/font&gt;&lt;/b&gt;&lt;/font&gt;&lt;/div&gt;&lt;div&gt;&lt;font style=&quot;&quot;&gt;&lt;b style=&quot;&quot;&gt;&lt;font style=&quot;font-size: 18px;&quot;&gt;&lt;br&gt;&lt;/font&gt;&lt;/b&gt;&lt;/font&gt;&lt;/div&gt;&lt;div&gt;&lt;font style=&quot;&quot;&gt;&lt;b style=&quot;&quot;&gt;&lt;font style=&quot;font-size: 18px;&quot;&gt;&lt;br&gt;&lt;/font&gt;&lt;/b&gt;&lt;/font&gt;&lt;/div&gt;&lt;div&gt;&lt;font style=&quot;&quot;&gt;&lt;b style=&quot;&quot;&gt;&lt;font style=&quot;font-size: 18px;&quot;&gt;&lt;br&gt;&lt;/font&gt;&lt;/b&gt;&lt;/font&gt;&lt;/div&gt;&lt;div&gt;&lt;font style=&quot;&quot;&gt;&lt;b style=&quot;&quot;&gt;&lt;font style=&quot;font-size: 18px;&quot;&gt;&lt;br&gt;&lt;/font&gt;&lt;/b&gt;&lt;/font&gt;&lt;/div&gt;&lt;div&gt;&lt;font style=&quot;&quot;&gt;&lt;b style=&quot;&quot;&gt;&lt;font style=&quot;font-size: 18px;&quot;&gt;&lt;br&gt;&lt;/font&gt;&lt;/b&gt;&lt;/font&gt;&lt;/div&gt;&lt;div&gt;&lt;font style=&quot;&quot;&gt;&lt;b style=&quot;&quot;&gt;&lt;font style=&quot;font-size: 18px;&quot;&gt;&lt;br&gt;&lt;/font&gt;&lt;/b&gt;&lt;/font&gt;&lt;/div&gt;&lt;div&gt;&lt;font style=&quot;&quot;&gt;&lt;b style=&quot;&quot;&gt;&lt;font style=&quot;font-size: 18px;&quot;&gt;&lt;br&gt;&lt;/font&gt;&lt;/b&gt;&lt;/font&gt;&lt;/div&gt;&lt;div&gt;&lt;font style=&quot;&quot;&gt;&lt;b style=&quot;&quot;&gt;&lt;font style=&quot;font-size: 18px;&quot;&gt;&lt;br&gt;&lt;/font&gt;&lt;/b&gt;&lt;/font&gt;&lt;/div&gt;&lt;div&gt;&lt;font style=&quot;&quot;&gt;&lt;b style=&quot;&quot;&gt;&lt;font style=&quot;font-size: 18px;&quot;&gt;&lt;br&gt;&lt;/font&gt;&lt;/b&gt;&lt;/font&gt;&lt;/div&gt;Museum&lt;/font&gt;&lt;/b&gt;&lt;br&gt;&lt;span style=&quot;font-size: 16px;&quot;&gt;- name: String&lt;/span&gt;&lt;br&gt;&lt;span style=&quot;font-size: 16px;&quot;&gt;- address: String&lt;/span&gt;&lt;br&gt;&lt;span style=&quot;font-size: 16px;&quot;&gt;- openingHours: String&lt;/span&gt;&lt;br&gt;&lt;span style=&quot;font-size: 16px;&quot;&gt;- phoneNumber: String&lt;/span&gt;&lt;br&gt;&lt;span style=&quot;font-size: 16px;&quot;&gt;- website: String&lt;/span&gt;&lt;br&gt;&lt;br&gt;&lt;span style=&quot;font-size: 16px;&quot;&gt;+ getInfo(): String&lt;/span&gt;&lt;br&gt;&lt;span style=&quot;font-size: 16px;&quot;&gt;+ addExhibition(e: Exhibition): void&lt;/span&gt;&lt;br&gt;&lt;span style=&quot;font-size: 16px;&quot;&gt;+ removeExhibition(id: int): void&lt;/span&gt;&lt;br&gt;&lt;span style=&quot;font-size: 16px;&quot;&gt;+ listExhibitions(): List&lt;/span&gt;&lt;br&gt;&lt;span style=&quot;font-size: 16px;&quot;&gt;+ getVisitorStats(): int&lt;/span&gt;&lt;/font&gt;" style="shape=swimlane;whiteSpace=wrap;html=1;" parent="1" vertex="1">
          <mxGeometry x="210" y="-240" width="200" height="300" as="geometry" />
        </mxCell>
        <mxCell id="4" value="&lt;div&gt;&lt;font style=&quot;&quot;&gt;&lt;b style=&quot;&quot;&gt;&lt;font style=&quot;font-size: 18px;&quot;&gt;&lt;br&gt;&lt;/font&gt;&lt;/b&gt;&lt;/font&gt;&lt;/div&gt;&lt;font style=&quot;&quot;&gt;&lt;b style=&quot;&quot;&gt;&lt;font style=&quot;font-size: 18px;&quot;&gt;&lt;div&gt;&lt;font style=&quot;&quot;&gt;&lt;b style=&quot;&quot;&gt;&lt;font style=&quot;font-size: 18px;&quot;&gt;&lt;br&gt;&lt;/font&gt;&lt;/b&gt;&lt;/font&gt;&lt;/div&gt;&lt;div&gt;&lt;font style=&quot;&quot;&gt;&lt;b style=&quot;&quot;&gt;&lt;font style=&quot;font-size: 18px;&quot;&gt;&lt;br&gt;&lt;/font&gt;&lt;/b&gt;&lt;/font&gt;&lt;/div&gt;&lt;div&gt;&lt;font style=&quot;&quot;&gt;&lt;b style=&quot;&quot;&gt;&lt;font style=&quot;font-size: 18px;&quot;&gt;&lt;br&gt;&lt;/font&gt;&lt;/b&gt;&lt;/font&gt;&lt;/div&gt;&lt;div&gt;&lt;font style=&quot;&quot;&gt;&lt;b style=&quot;&quot;&gt;&lt;font style=&quot;font-size: 18px;&quot;&gt;&lt;br&gt;&lt;/font&gt;&lt;/b&gt;&lt;/font&gt;&lt;/div&gt;&lt;div&gt;&lt;font style=&quot;&quot;&gt;&lt;b style=&quot;&quot;&gt;&lt;font style=&quot;font-size: 18px;&quot;&gt;&lt;br&gt;&lt;/font&gt;&lt;/b&gt;&lt;/font&gt;&lt;/div&gt;&lt;div&gt;&lt;font style=&quot;&quot;&gt;&lt;b style=&quot;&quot;&gt;&lt;font style=&quot;font-size: 18px;&quot;&gt;&lt;br&gt;&lt;/font&gt;&lt;/b&gt;&lt;/font&gt;&lt;/div&gt;&lt;div&gt;&lt;font style=&quot;&quot;&gt;&lt;b style=&quot;&quot;&gt;&lt;font style=&quot;font-size: 18px;&quot;&gt;&lt;br&gt;&lt;/font&gt;&lt;/b&gt;&lt;/font&gt;&lt;/div&gt;&lt;div&gt;&lt;font style=&quot;&quot;&gt;&lt;b style=&quot;&quot;&gt;&lt;font style=&quot;font-size: 18px;&quot;&gt;&lt;br&gt;&lt;/font&gt;&lt;/b&gt;&lt;/font&gt;&lt;/div&gt;&lt;div&gt;&lt;font style=&quot;&quot;&gt;&lt;b style=&quot;&quot;&gt;&lt;font style=&quot;font-size: 18px;&quot;&gt;&lt;br&gt;&lt;/font&gt;&lt;/b&gt;&lt;/font&gt;&lt;/div&gt;&lt;div&gt;&lt;font style=&quot;&quot;&gt;&lt;b style=&quot;&quot;&gt;&lt;font style=&quot;font-size: 18px;&quot;&gt;&lt;br&gt;&lt;/font&gt;&lt;/b&gt;&lt;/font&gt;&lt;/div&gt;&lt;div&gt;&lt;font style=&quot;&quot;&gt;&lt;b style=&quot;&quot;&gt;&lt;font style=&quot;font-size: 18px;&quot;&gt;&lt;br&gt;&lt;/font&gt;&lt;/b&gt;&lt;/font&gt;&lt;/div&gt;Exhibit&lt;/font&gt;&lt;/b&gt;&lt;br&gt;&lt;span style=&quot;font-size: 16px;&quot;&gt;- name: String&lt;/span&gt;&lt;br&gt;&lt;span style=&quot;font-size: 16px;&quot;&gt;- origin: String&lt;/span&gt;&lt;br&gt;&lt;span style=&quot;font-size: 16px;&quot;&gt;- age: int&lt;/span&gt;&lt;br&gt;&lt;span style=&quot;font-size: 16px;&quot;&gt;- material: String&lt;/span&gt;&lt;br&gt;&lt;span style=&quot;font-size: 16px;&quot;&gt;- condition: String&lt;/span&gt;&lt;br&gt;&lt;br&gt;&lt;span style=&quot;font-size: 16px;&quot;&gt;+ getDetails(): String&lt;/span&gt;&lt;br&gt;&lt;span style=&quot;font-size: 16px;&quot;&gt;+ updateCondition(c: String): void&lt;/span&gt;&lt;br&gt;&lt;span style=&quot;font-size: 16px;&quot;&gt;+ assignToExhibition(e: Exhibition): void&lt;/span&gt;&lt;br&gt;&lt;span style=&quot;font-size: 16px;&quot;&gt;+ getAgeCategory(): String&lt;/span&gt;&lt;br&gt;&lt;span style=&quot;font-size: 16px;&quot;&gt;+ scheduleRestoration(date: Date): void&lt;/span&gt;&lt;/font&gt;" style="shape=swimlane;whiteSpace=wrap;html=1;startSize=30;" parent="1" vertex="1">
          <mxGeometry x="40" y="440" width="220" height="300" as="geometry" />
        </mxCell>
        <mxCell id="3" value="&lt;div&gt;&lt;b&gt;&lt;font style=&quot;font-size: 16px;&quot;&gt;&lt;br&gt;&lt;/font&gt;&lt;/b&gt;&lt;/div&gt;&lt;font style=&quot;&quot;&gt;&lt;b style=&quot;&quot;&gt;&lt;div style=&quot;font-size: 16px;&quot;&gt;&lt;b&gt;&lt;br&gt;&lt;/b&gt;&lt;/div&gt;&lt;div style=&quot;font-size: 16px;&quot;&gt;&lt;b&gt;&lt;br&gt;&lt;/b&gt;&lt;/div&gt;&lt;div style=&quot;font-size: 16px;&quot;&gt;&lt;b&gt;&lt;br&gt;&lt;/b&gt;&lt;/div&gt;&lt;div style=&quot;font-size: 16px;&quot;&gt;&lt;b&gt;&lt;br&gt;&lt;/b&gt;&lt;/div&gt;&lt;div style=&quot;font-size: 16px;&quot;&gt;&lt;font style=&quot;font-size: 16px;&quot;&gt;&lt;b style=&quot;&quot;&gt;&lt;br&gt;&lt;/b&gt;&lt;/font&gt;&lt;/div&gt;&lt;div style=&quot;font-size: 16px;&quot;&gt;&lt;font style=&quot;font-size: 16px;&quot;&gt;&lt;b style=&quot;&quot;&gt;&lt;br&gt;&lt;/b&gt;&lt;/font&gt;&lt;/div&gt;&lt;div style=&quot;font-size: 16px;&quot;&gt;&lt;font style=&quot;font-size: 16px;&quot;&gt;&lt;b style=&quot;&quot;&gt;&lt;br&gt;&lt;/b&gt;&lt;/font&gt;&lt;/div&gt;&lt;div style=&quot;font-size: 16px;&quot;&gt;&lt;font style=&quot;font-size: 16px;&quot;&gt;&lt;b style=&quot;&quot;&gt;&lt;br&gt;&lt;/b&gt;&lt;/font&gt;&lt;/div&gt;&lt;div style=&quot;font-size: 16px;&quot;&gt;&lt;font style=&quot;font-size: 16px;&quot;&gt;&lt;b style=&quot;&quot;&gt;&lt;br&gt;&lt;/b&gt;&lt;/font&gt;&lt;/div&gt;&lt;div style=&quot;font-size: 16px;&quot;&gt;&lt;font style=&quot;font-size: 16px;&quot;&gt;&lt;b style=&quot;&quot;&gt;&lt;br&gt;&lt;/b&gt;&lt;/font&gt;&lt;/div&gt;&lt;div style=&quot;font-size: 16px;&quot;&gt;&lt;font style=&quot;font-size: 16px;&quot;&gt;&lt;b style=&quot;&quot;&gt;&lt;br&gt;&lt;/b&gt;&lt;/font&gt;&lt;/div&gt;&lt;div style=&quot;font-size: 16px;&quot;&gt;&lt;font style=&quot;font-size: 16px;&quot;&gt;&lt;b style=&quot;&quot;&gt;&lt;br&gt;&lt;/b&gt;&lt;/font&gt;&lt;/div&gt;&lt;font style=&quot;font-size: 18px;&quot;&gt;Exhibition&lt;/font&gt;&lt;/b&gt;&lt;br&gt;&lt;span style=&quot;font-size: 16px;&quot;&gt;- title: String&lt;/span&gt;&lt;br&gt;&lt;span style=&quot;font-size: 16px;&quot;&gt;- description: String&lt;/span&gt;&lt;br&gt;&lt;span style=&quot;font-size: 16px;&quot;&gt;- startDate: Date&lt;/span&gt;&lt;br&gt;&lt;span style=&quot;font-size: 16px;&quot;&gt;- endDate: Date&lt;/span&gt;&lt;br&gt;&lt;span style=&quot;font-size: 16px;&quot;&gt;- curator: String&lt;/span&gt;&lt;br&gt;&lt;br&gt;&lt;span style=&quot;font-size: 16px;&quot;&gt;+ getDuration(): int&lt;/span&gt;&lt;br&gt;&lt;span style=&quot;font-size: 16px;&quot;&gt;+ addExhibit(e: Exhibit): void&lt;/span&gt;&lt;br&gt;&lt;span style=&quot;font-size: 16px;&quot;&gt;+ removeExhibit(id: int): void&lt;/span&gt;&lt;br&gt;&lt;span style=&quot;font-size: 16px;&quot;&gt;+ listExhibits(): List&lt;/span&gt;&lt;br&gt;&lt;span style=&quot;font-size: 16px;&quot;&gt;+ isOngoing(): boolean&lt;/span&gt;&lt;/font&gt;" style="shape=swimlane;whiteSpace=wrap;html=1;" parent="4" vertex="1">
          <mxGeometry x="-40" y="-340" width="200" height="290" as="geometry" />
        </mxCell>
        <mxCell id="12" style="endArrow=diamond;" parent="4" source="3" target="4" edge="1">
          <mxGeometry relative="1" as="geometry" />
        </mxCell>
        <mxCell id="5" value="&lt;div&gt;&lt;font style=&quot;&quot;&gt;&lt;b style=&quot;&quot;&gt;&lt;font style=&quot;font-size: 18px;&quot;&gt;&lt;br&gt;&lt;/font&gt;&lt;/b&gt;&lt;/font&gt;&lt;/div&gt;&lt;font style=&quot;&quot;&gt;&lt;b style=&quot;&quot;&gt;&lt;font style=&quot;font-size: 18px;&quot;&gt;&lt;div&gt;&lt;font style=&quot;&quot;&gt;&lt;b style=&quot;&quot;&gt;&lt;font style=&quot;font-size: 18px;&quot;&gt;&lt;br&gt;&lt;/font&gt;&lt;/b&gt;&lt;/font&gt;&lt;/div&gt;&lt;div&gt;&lt;font style=&quot;&quot;&gt;&lt;b style=&quot;&quot;&gt;&lt;font style=&quot;font-size: 18px;&quot;&gt;&lt;br&gt;&lt;/font&gt;&lt;/b&gt;&lt;/font&gt;&lt;/div&gt;&lt;div&gt;&lt;font style=&quot;&quot;&gt;&lt;b style=&quot;&quot;&gt;&lt;font style=&quot;font-size: 18px;&quot;&gt;&lt;br&gt;&lt;/font&gt;&lt;/b&gt;&lt;/font&gt;&lt;/div&gt;&lt;div&gt;&lt;font style=&quot;&quot;&gt;&lt;b style=&quot;&quot;&gt;&lt;font style=&quot;font-size: 18px;&quot;&gt;&lt;br&gt;&lt;/font&gt;&lt;/b&gt;&lt;/font&gt;&lt;/div&gt;&lt;div&gt;&lt;font style=&quot;&quot;&gt;&lt;b style=&quot;&quot;&gt;&lt;font style=&quot;font-size: 18px;&quot;&gt;&lt;br&gt;&lt;/font&gt;&lt;/b&gt;&lt;/font&gt;&lt;/div&gt;&lt;div&gt;&lt;font style=&quot;&quot;&gt;&lt;b style=&quot;&quot;&gt;&lt;font style=&quot;font-size: 18px;&quot;&gt;&lt;br&gt;&lt;/font&gt;&lt;/b&gt;&lt;/font&gt;&lt;/div&gt;&lt;div&gt;&lt;font style=&quot;&quot;&gt;&lt;b style=&quot;&quot;&gt;&lt;font style=&quot;font-size: 18px;&quot;&gt;&lt;br&gt;&lt;/font&gt;&lt;/b&gt;&lt;/font&gt;&lt;/div&gt;&lt;div&gt;&lt;font style=&quot;&quot;&gt;&lt;b style=&quot;&quot;&gt;&lt;font style=&quot;font-size: 18px;&quot;&gt;&lt;br&gt;&lt;/font&gt;&lt;/b&gt;&lt;/font&gt;&lt;/div&gt;&lt;div&gt;&lt;font style=&quot;&quot;&gt;&lt;b style=&quot;&quot;&gt;&lt;font style=&quot;font-size: 18px;&quot;&gt;&lt;br&gt;&lt;/font&gt;&lt;/b&gt;&lt;/font&gt;&lt;/div&gt;&lt;div&gt;&lt;font style=&quot;&quot;&gt;&lt;b style=&quot;&quot;&gt;&lt;font style=&quot;font-size: 18px;&quot;&gt;&lt;br&gt;&lt;/font&gt;&lt;/b&gt;&lt;/font&gt;&lt;/div&gt;Ticket&lt;/font&gt;&lt;/b&gt;&lt;br&gt;&lt;span style=&quot;font-size: 16px;&quot;&gt;- id: int&lt;/span&gt;&lt;br&gt;&lt;span style=&quot;font-size: 16px;&quot;&gt;- price: double&lt;/span&gt;&lt;br&gt;&lt;span style=&quot;font-size: 16px;&quot;&gt;- date: Date&lt;/span&gt;&lt;br&gt;&lt;span style=&quot;font-size: 16px;&quot;&gt;- validForTour: boolean&lt;/span&gt;&lt;br&gt;&lt;span style=&quot;font-size: 16px;&quot;&gt;- visitorName: String&lt;/span&gt;&lt;br&gt;&lt;br&gt;&lt;span style=&quot;font-size: 16px;&quot;&gt;+ startTour(): void&lt;/span&gt;&lt;br&gt;&lt;span style=&quot;font-size: 16px;&quot;&gt;+ endTour(): void&lt;/span&gt;&lt;br&gt;&lt;span style=&quot;font-size: 16px;&quot;&gt;+ reschedule(date: Date): void&lt;/span&gt;&lt;br&gt;&lt;span style=&quot;font-size: 16px;&quot;&gt;+ getTourSummary(): String&lt;/span&gt;&lt;br&gt;&lt;span style=&quot;font-size: 16px;&quot;&gt;+ addVisitor(v: Visitor): void&lt;/span&gt;&lt;/font&gt;" style="shape=swimlane;whiteSpace=wrap;html=1;startSize=40;" parent="1" vertex="1">
          <mxGeometry x="990" y="470" width="200" height="270" as="geometry" />
        </mxCell>
        <mxCell id="6" value="&lt;div&gt;&lt;font style=&quot;&quot;&gt;&lt;b style=&quot;&quot;&gt;&lt;font style=&quot;font-size: 18px;&quot;&gt;&lt;br&gt;&lt;/font&gt;&lt;/b&gt;&lt;/font&gt;&lt;/div&gt;&lt;font style=&quot;&quot;&gt;&lt;b style=&quot;&quot;&gt;&lt;font style=&quot;font-size: 18px;&quot;&gt;&lt;div&gt;&lt;font style=&quot;&quot;&gt;&lt;b style=&quot;&quot;&gt;&lt;font style=&quot;font-size: 18px;&quot;&gt;&lt;br&gt;&lt;/font&gt;&lt;/b&gt;&lt;/font&gt;&lt;/div&gt;&lt;div&gt;&lt;font style=&quot;&quot;&gt;&lt;b style=&quot;&quot;&gt;&lt;font style=&quot;font-size: 18px;&quot;&gt;&lt;br&gt;&lt;/font&gt;&lt;/b&gt;&lt;/font&gt;&lt;/div&gt;&lt;div&gt;&lt;font style=&quot;&quot;&gt;&lt;b style=&quot;&quot;&gt;&lt;font style=&quot;font-size: 18px;&quot;&gt;&lt;br&gt;&lt;/font&gt;&lt;/b&gt;&lt;/font&gt;&lt;/div&gt;&lt;div&gt;&lt;font style=&quot;&quot;&gt;&lt;b style=&quot;&quot;&gt;&lt;font style=&quot;font-size: 18px;&quot;&gt;&lt;br&gt;&lt;/font&gt;&lt;/b&gt;&lt;/font&gt;&lt;/div&gt;&lt;div&gt;&lt;font style=&quot;&quot;&gt;&lt;b style=&quot;&quot;&gt;&lt;font style=&quot;font-size: 18px;&quot;&gt;&lt;br&gt;&lt;/font&gt;&lt;/b&gt;&lt;/font&gt;&lt;/div&gt;&lt;div&gt;&lt;font style=&quot;&quot;&gt;&lt;b style=&quot;&quot;&gt;&lt;font style=&quot;font-size: 18px;&quot;&gt;&lt;br&gt;&lt;/font&gt;&lt;/b&gt;&lt;/font&gt;&lt;/div&gt;&lt;div&gt;&lt;font style=&quot;&quot;&gt;&lt;b style=&quot;&quot;&gt;&lt;font style=&quot;font-size: 18px;&quot;&gt;&lt;br&gt;&lt;/font&gt;&lt;/b&gt;&lt;/font&gt;&lt;/div&gt;&lt;div&gt;&lt;font style=&quot;&quot;&gt;&lt;b style=&quot;&quot;&gt;&lt;font style=&quot;font-size: 18px;&quot;&gt;&lt;br&gt;&lt;/font&gt;&lt;/b&gt;&lt;/font&gt;&lt;/div&gt;&lt;div&gt;&lt;font style=&quot;&quot;&gt;&lt;b style=&quot;&quot;&gt;&lt;font style=&quot;font-size: 18px;&quot;&gt;&lt;br&gt;&lt;/font&gt;&lt;/b&gt;&lt;/font&gt;&lt;/div&gt;&lt;div&gt;&lt;font style=&quot;&quot;&gt;&lt;b style=&quot;&quot;&gt;&lt;font style=&quot;font-size: 18px;&quot;&gt;&lt;br&gt;&lt;/font&gt;&lt;/b&gt;&lt;/font&gt;&lt;/div&gt;&lt;div&gt;&lt;font style=&quot;&quot;&gt;&lt;b style=&quot;&quot;&gt;&lt;font style=&quot;font-size: 18px;&quot;&gt;&lt;br&gt;&lt;/font&gt;&lt;/b&gt;&lt;/font&gt;&lt;/div&gt;Visitor&lt;/font&gt;&lt;/b&gt;&lt;br&gt;&lt;span style=&quot;font-size: 16px;&quot;&gt;- name: String&lt;/span&gt;&lt;br&gt;&lt;span style=&quot;font-size: 16px;&quot;&gt;- age: int&lt;/span&gt;&lt;br&gt;&lt;span style=&quot;font-size: 16px;&quot;&gt;- nationality: String&lt;/span&gt;&lt;br&gt;&lt;span style=&quot;font-size: 16px;&quot;&gt;- email: String&lt;/span&gt;&lt;br&gt;&lt;span style=&quot;font-size: 16px;&quot;&gt;- ticketId: int&lt;/span&gt;&lt;br&gt;&lt;br&gt;&lt;span style=&quot;font-size: 16px;&quot;&gt;+ visitMuseum(m: Museum): void&lt;/span&gt;&lt;br&gt;&lt;span style=&quot;font-size: 16px;&quot;&gt;+ buyTicket(): Ticket&lt;/span&gt;&lt;br&gt;&lt;span style=&quot;font-size: 16px;&quot;&gt;+ rateExhibition(e: Exhibition): void&lt;/span&gt;&lt;br&gt;&lt;span style=&quot;font-size: 16px;&quot;&gt;+ leaveFeedback(): String&lt;/span&gt;&lt;br&gt;&lt;span style=&quot;font-size: 16px;&quot;&gt;+ joinTour(t: Ticket): void&lt;/span&gt;&lt;/font&gt;" style="shape=swimlane;whiteSpace=wrap;html=1;" parent="1" vertex="1">
          <mxGeometry x="1340" y="200" width="200" height="290" as="geometry" />
        </mxCell>
        <mxCell id="PC6vZCdoZk34Lnzwy-Ig-17" style="edgeStyle=orthogonalEdgeStyle;rounded=0;orthogonalLoop=1;jettySize=auto;html=1;entryX=0.5;entryY=1;entryDx=0;entryDy=0;" edge="1" parent="1" source="7" target="9">
          <mxGeometry relative="1" as="geometry" />
        </mxCell>
        <mxCell id="7" value="&lt;div&gt;&lt;font style=&quot;&quot;&gt;&lt;font style=&quot;font-size: 18px;&quot;&gt;&lt;b style=&quot;&quot;&gt;&lt;br&gt;&lt;/b&gt;&lt;/font&gt;&lt;/font&gt;&lt;/div&gt;&lt;font style=&quot;&quot;&gt;&lt;font style=&quot;font-size: 18px;&quot;&gt;&lt;b style=&quot;&quot;&gt;&lt;div&gt;&lt;font style=&quot;&quot;&gt;&lt;font style=&quot;font-size: 18px;&quot;&gt;&lt;b style=&quot;&quot;&gt;&lt;br&gt;&lt;/b&gt;&lt;/font&gt;&lt;/font&gt;&lt;/div&gt;&lt;div&gt;&lt;font style=&quot;&quot;&gt;&lt;font style=&quot;font-size: 18px;&quot;&gt;&lt;b style=&quot;&quot;&gt;&lt;br&gt;&lt;/b&gt;&lt;/font&gt;&lt;/font&gt;&lt;/div&gt;&lt;div&gt;&lt;font style=&quot;&quot;&gt;&lt;font style=&quot;font-size: 18px;&quot;&gt;&lt;b style=&quot;&quot;&gt;&lt;br&gt;&lt;/b&gt;&lt;/font&gt;&lt;/font&gt;&lt;/div&gt;&lt;div&gt;&lt;font style=&quot;&quot;&gt;&lt;font style=&quot;font-size: 18px;&quot;&gt;&lt;b style=&quot;&quot;&gt;&lt;br&gt;&lt;/b&gt;&lt;/font&gt;&lt;/font&gt;&lt;/div&gt;&lt;div&gt;&lt;font style=&quot;&quot;&gt;&lt;font style=&quot;font-size: 18px;&quot;&gt;&lt;b style=&quot;&quot;&gt;&lt;br&gt;&lt;/b&gt;&lt;/font&gt;&lt;/font&gt;&lt;/div&gt;&lt;div&gt;&lt;font style=&quot;&quot;&gt;&lt;font style=&quot;font-size: 18px;&quot;&gt;&lt;b style=&quot;&quot;&gt;&lt;br&gt;&lt;/b&gt;&lt;/font&gt;&lt;/font&gt;&lt;/div&gt;&lt;div&gt;&lt;font style=&quot;&quot;&gt;&lt;font style=&quot;font-size: 18px;&quot;&gt;&lt;b style=&quot;&quot;&gt;&lt;br&gt;&lt;/b&gt;&lt;/font&gt;&lt;/font&gt;&lt;/div&gt;&lt;div&gt;&lt;font style=&quot;&quot;&gt;&lt;font style=&quot;font-size: 18px;&quot;&gt;&lt;b style=&quot;&quot;&gt;&lt;br&gt;&lt;/b&gt;&lt;/font&gt;&lt;/font&gt;&lt;/div&gt;&lt;div&gt;&lt;font style=&quot;&quot;&gt;&lt;font style=&quot;font-size: 18px;&quot;&gt;&lt;b style=&quot;&quot;&gt;&lt;br&gt;&lt;/b&gt;&lt;/font&gt;&lt;/font&gt;&lt;/div&gt;&lt;div&gt;&lt;font style=&quot;&quot;&gt;&lt;font style=&quot;font-size: 18px;&quot;&gt;&lt;b style=&quot;&quot;&gt;&lt;br&gt;&lt;/b&gt;&lt;/font&gt;&lt;/font&gt;&lt;/div&gt;&lt;div&gt;&lt;font style=&quot;&quot;&gt;&lt;font style=&quot;font-size: 18px;&quot;&gt;&lt;b style=&quot;&quot;&gt;&lt;br&gt;&lt;/b&gt;&lt;/font&gt;&lt;/font&gt;&lt;/div&gt;Guide&lt;/b&gt;&lt;br&gt;&lt;/font&gt;&lt;span style=&quot;font-size: 16px;&quot;&gt;- languages: List&lt;/span&gt;&lt;br&gt;&lt;span style=&quot;font-size: 16px;&quot;&gt;- experienceYears: int&lt;/span&gt;&lt;br&gt;&lt;span style=&quot;font-size: 16px;&quot;&gt;- availability: boolean&lt;/span&gt;&lt;br&gt;&lt;span style=&quot;font-size: 16px;&quot;&gt;- guideId: int&lt;/span&gt;&lt;/font&gt;&lt;div&gt;&lt;font style=&quot;&quot;&gt;&lt;font style=&quot;font-size: 16px;&quot;&gt;- supervisor: Manager&lt;/font&gt;&lt;span style=&quot;font-size: 16px;&quot;&gt;&lt;br&gt;- assignedVisitor: Visitor&lt;/span&gt;&lt;br&gt;&lt;br&gt;&lt;span style=&quot;font-size: 16px;&quot;&gt;+ validate(): boolean&lt;/span&gt;&lt;br&gt;&lt;span style=&quot;font-size: 16px;&quot;&gt;+ assignToVisitor(v: Visitor): void&lt;/span&gt;&lt;br&gt;&lt;span style=&quot;font-size: 16px;&quot;&gt;+ getTicketInfo(): String&lt;/span&gt;&lt;br&gt;&lt;span style=&quot;font-size: 16px;&quot;&gt;+ isUsed(): boolean&lt;/span&gt;&lt;br&gt;&lt;span style=&quot;font-size: 16px;&quot;&gt;+ getUsed(): void&lt;/span&gt;&lt;/font&gt;&lt;/div&gt;" style="shape=swimlane;whiteSpace=wrap;html=1;" parent="1" vertex="1">
          <mxGeometry x="870" y="50" width="200" height="300" as="geometry" />
        </mxCell>
        <mxCell id="8" value="&lt;div&gt;&lt;font style=&quot;&quot;&gt;&lt;b style=&quot;&quot;&gt;&lt;font style=&quot;font-size: 18px;&quot;&gt;&lt;br&gt;&lt;/font&gt;&lt;/b&gt;&lt;/font&gt;&lt;/div&gt;&lt;font style=&quot;&quot;&gt;&lt;b style=&quot;&quot;&gt;&lt;font style=&quot;font-size: 18px;&quot;&gt;&lt;div&gt;&lt;font style=&quot;&quot;&gt;&lt;b style=&quot;&quot;&gt;&lt;font style=&quot;font-size: 18px;&quot;&gt;&lt;br&gt;&lt;/font&gt;&lt;/b&gt;&lt;/font&gt;&lt;/div&gt;&lt;div&gt;&lt;font style=&quot;&quot;&gt;&lt;b style=&quot;&quot;&gt;&lt;font style=&quot;font-size: 18px;&quot;&gt;&lt;br&gt;&lt;/font&gt;&lt;/b&gt;&lt;/font&gt;&lt;/div&gt;&lt;div&gt;&lt;font style=&quot;&quot;&gt;&lt;b style=&quot;&quot;&gt;&lt;font style=&quot;font-size: 18px;&quot;&gt;&lt;br&gt;&lt;/font&gt;&lt;/b&gt;&lt;/font&gt;&lt;/div&gt;&lt;div&gt;&lt;font style=&quot;&quot;&gt;&lt;b style=&quot;&quot;&gt;&lt;font style=&quot;font-size: 18px;&quot;&gt;&lt;br&gt;&lt;/font&gt;&lt;/b&gt;&lt;/font&gt;&lt;/div&gt;&lt;div&gt;&lt;font style=&quot;&quot;&gt;&lt;b style=&quot;&quot;&gt;&lt;font style=&quot;font-size: 18px;&quot;&gt;&lt;br&gt;&lt;/font&gt;&lt;/b&gt;&lt;/font&gt;&lt;/div&gt;&lt;div&gt;&lt;font style=&quot;&quot;&gt;&lt;b style=&quot;&quot;&gt;&lt;font style=&quot;font-size: 18px;&quot;&gt;&lt;br&gt;&lt;/font&gt;&lt;/b&gt;&lt;/font&gt;&lt;/div&gt;&lt;div&gt;&lt;font style=&quot;&quot;&gt;&lt;b style=&quot;&quot;&gt;&lt;font style=&quot;font-size: 18px;&quot;&gt;&lt;br&gt;&lt;/font&gt;&lt;/b&gt;&lt;/font&gt;&lt;/div&gt;&lt;div&gt;&lt;font style=&quot;&quot;&gt;&lt;b style=&quot;&quot;&gt;&lt;font style=&quot;font-size: 18px;&quot;&gt;&lt;br&gt;&lt;/font&gt;&lt;/b&gt;&lt;/font&gt;&lt;/div&gt;&lt;div&gt;&lt;font style=&quot;&quot;&gt;&lt;b style=&quot;&quot;&gt;&lt;font style=&quot;font-size: 18px;&quot;&gt;&lt;br&gt;&lt;/font&gt;&lt;/b&gt;&lt;/font&gt;&lt;/div&gt;Employee&lt;/font&gt;&lt;/b&gt;&lt;br&gt;&lt;span style=&quot;font-size: 16px;&quot;&gt;- name: String&lt;/span&gt;&lt;br&gt;&lt;span style=&quot;font-size: 16px;&quot;&gt;- id: int&lt;/span&gt;&lt;br&gt;&lt;span style=&quot;font-size: 16px;&quot;&gt;- position: String&lt;/span&gt;&lt;br&gt;&lt;span style=&quot;font-size: 16px;&quot;&gt;- email: String&lt;/span&gt;&lt;br&gt;&lt;span style=&quot;font-size: 16px;&quot;&gt;- hireDate: Date&lt;/span&gt;&lt;br&gt;&lt;br&gt;&lt;span style=&quot;font-size: 16px;&quot;&gt;+ getEmployeeInfo(): String&lt;/span&gt;&lt;br&gt;&lt;span style=&quot;font-size: 16px;&quot;&gt;+ manageExhibitions(): void&lt;/span&gt;&lt;br&gt;&lt;span style=&quot;font-size: 16px;&quot;&gt;+ report(): String&lt;/span&gt;&lt;br&gt;&lt;span style=&quot;font-size: 16px;&quot;&gt;+ isAvailable(): boolean&lt;/span&gt;&lt;br&gt;&lt;span style=&quot;font-size: 16px;&quot;&gt;+ supervise(): void&lt;/span&gt;&lt;/font&gt;" style="shape=swimlane;whiteSpace=wrap;html=1;" parent="1" vertex="1">
          <mxGeometry x="570" y="-270" width="210" height="250" as="geometry" />
        </mxCell>
        <mxCell id="9" value="&lt;div&gt;&lt;font style=&quot;&quot;&gt;&lt;font style=&quot;font-size: 18px;&quot;&gt;&lt;b style=&quot;&quot;&gt;&lt;br&gt;&lt;/b&gt;&lt;/font&gt;&lt;/font&gt;&lt;/div&gt;&lt;font style=&quot;&quot;&gt;&lt;font style=&quot;font-size: 18px;&quot;&gt;&lt;b style=&quot;&quot;&gt;&lt;div&gt;&lt;font style=&quot;&quot;&gt;&lt;font style=&quot;font-size: 18px;&quot;&gt;&lt;b style=&quot;&quot;&gt;&lt;br&gt;&lt;/b&gt;&lt;/font&gt;&lt;/font&gt;&lt;/div&gt;&lt;div&gt;&lt;font style=&quot;&quot;&gt;&lt;font style=&quot;font-size: 18px;&quot;&gt;&lt;b style=&quot;&quot;&gt;&lt;br&gt;&lt;/b&gt;&lt;/font&gt;&lt;/font&gt;&lt;/div&gt;&lt;div&gt;&lt;font style=&quot;&quot;&gt;&lt;font style=&quot;font-size: 18px;&quot;&gt;&lt;b style=&quot;&quot;&gt;&lt;br&gt;&lt;/b&gt;&lt;/font&gt;&lt;/font&gt;&lt;/div&gt;&lt;div&gt;&lt;font style=&quot;&quot;&gt;&lt;font style=&quot;font-size: 18px;&quot;&gt;&lt;b style=&quot;&quot;&gt;&lt;br&gt;&lt;/b&gt;&lt;/font&gt;&lt;/font&gt;&lt;/div&gt;&lt;div&gt;&lt;font style=&quot;&quot;&gt;&lt;font style=&quot;font-size: 18px;&quot;&gt;&lt;b style=&quot;&quot;&gt;&lt;br&gt;&lt;/b&gt;&lt;/font&gt;&lt;/font&gt;&lt;/div&gt;&lt;div&gt;&lt;font style=&quot;&quot;&gt;&lt;font style=&quot;font-size: 18px;&quot;&gt;&lt;b style=&quot;&quot;&gt;&lt;br&gt;&lt;/b&gt;&lt;/font&gt;&lt;/font&gt;&lt;/div&gt;&lt;div&gt;&lt;font style=&quot;&quot;&gt;&lt;font style=&quot;font-size: 18px;&quot;&gt;&lt;b style=&quot;&quot;&gt;&lt;br&gt;&lt;/b&gt;&lt;/font&gt;&lt;/font&gt;&lt;/div&gt;&lt;div&gt;&lt;font style=&quot;&quot;&gt;&lt;font style=&quot;font-size: 18px;&quot;&gt;&lt;b style=&quot;&quot;&gt;&lt;br&gt;&lt;/b&gt;&lt;/font&gt;&lt;/font&gt;&lt;/div&gt;&lt;div&gt;&lt;font style=&quot;&quot;&gt;&lt;font style=&quot;font-size: 18px;&quot;&gt;&lt;b style=&quot;&quot;&gt;&lt;br&gt;&lt;/b&gt;&lt;/font&gt;&lt;/font&gt;&lt;/div&gt;&lt;div&gt;&lt;font style=&quot;&quot;&gt;&lt;font style=&quot;font-size: 18px;&quot;&gt;&lt;b style=&quot;&quot;&gt;&lt;br&gt;&lt;/b&gt;&lt;/font&gt;&lt;/font&gt;&lt;/div&gt;&lt;div&gt;&lt;font style=&quot;&quot;&gt;&lt;font style=&quot;font-size: 18px;&quot;&gt;&lt;b style=&quot;&quot;&gt;&lt;br&gt;&lt;/b&gt;&lt;/font&gt;&lt;/font&gt;&lt;/div&gt;Manager&lt;/b&gt;&lt;br&gt;&lt;/font&gt;&lt;span style=&quot;font-size: 16px;&quot;&gt;- managerName: String&lt;/span&gt;&lt;br&gt;&lt;span style=&quot;font-size: 16px;&quot;&gt;- officeNumber: String&lt;/span&gt;&lt;br&gt;&lt;span style=&quot;font-size: 16px;&quot;&gt;- isAvailable: boolean&lt;/span&gt;&lt;br&gt;&lt;span style=&quot;font-size: 16px;&quot;&gt;- managedStaff: List&lt;/span&gt;&lt;/font&gt;&lt;div&gt;&lt;font style=&quot;&quot;&gt;&lt;font style=&quot;font-size: 16px;&quot;&gt;- supervisedGuides: List&amp;lt;Guide&amp;gt;&lt;/font&gt;&lt;span style=&quot;font-size: 16px;&quot;&gt;&lt;br&gt;- budget: double&lt;/span&gt;&lt;br&gt;&lt;br&gt;&lt;span style=&quot;font-size: 16px;&quot;&gt;+ hire(): void&lt;/span&gt;&lt;br&gt;&lt;span style=&quot;font-size: 16px;&quot;&gt;+ fire(): void&lt;/span&gt;&lt;br&gt;&lt;span style=&quot;font-size: 16px;&quot;&gt;+ promote(): void&lt;/span&gt;&lt;br&gt;&lt;span style=&quot;font-size: 16px;&quot;&gt;+ demote(): void&lt;/span&gt;&lt;br&gt;&lt;span style=&quot;font-size: 16px;&quot;&gt;+ assignTask(): void&lt;/span&gt;&lt;/font&gt;&lt;/div&gt;" style="shape=swimlane;whiteSpace=wrap;html=1;" parent="1" vertex="1">
          <mxGeometry x="950" y="-310" width="200" height="290" as="geometry" />
        </mxCell>
        <mxCell id="10" value="&lt;div&gt;&lt;font style=&quot;font-size: 16px;&quot;&gt;&lt;b style=&quot;&quot;&gt;&lt;br&gt;&lt;/b&gt;&lt;/font&gt;&lt;/div&gt;&lt;font style=&quot;&quot;&gt;&lt;b style=&quot;&quot;&gt;&lt;div style=&quot;font-size: 16px;&quot;&gt;&lt;font style=&quot;font-size: 16px;&quot;&gt;&lt;b style=&quot;&quot;&gt;&lt;br&gt;&lt;/b&gt;&lt;/font&gt;&lt;/div&gt;&lt;div style=&quot;font-size: 16px;&quot;&gt;&lt;font style=&quot;font-size: 16px;&quot;&gt;&lt;b style=&quot;&quot;&gt;&lt;br&gt;&lt;/b&gt;&lt;/font&gt;&lt;/div&gt;&lt;div style=&quot;font-size: 16px;&quot;&gt;&lt;font style=&quot;font-size: 16px;&quot;&gt;&lt;b style=&quot;&quot;&gt;&lt;br&gt;&lt;/b&gt;&lt;/font&gt;&lt;/div&gt;&lt;div style=&quot;font-size: 16px;&quot;&gt;&lt;font style=&quot;font-size: 16px;&quot;&gt;&lt;b style=&quot;&quot;&gt;&lt;br&gt;&lt;/b&gt;&lt;/font&gt;&lt;/div&gt;&lt;div style=&quot;font-size: 16px;&quot;&gt;&lt;font style=&quot;font-size: 16px;&quot;&gt;&lt;b style=&quot;&quot;&gt;&lt;br&gt;&lt;/b&gt;&lt;/font&gt;&lt;/div&gt;&lt;div style=&quot;font-size: 16px;&quot;&gt;&lt;font style=&quot;font-size: 16px;&quot;&gt;&lt;b style=&quot;&quot;&gt;&lt;br&gt;&lt;/b&gt;&lt;/font&gt;&lt;/div&gt;&lt;div style=&quot;font-size: 16px;&quot;&gt;&lt;font style=&quot;font-size: 16px;&quot;&gt;&lt;b style=&quot;&quot;&gt;&lt;br&gt;&lt;/b&gt;&lt;/font&gt;&lt;/div&gt;&lt;div style=&quot;font-size: 16px;&quot;&gt;&lt;font style=&quot;font-size: 16px;&quot;&gt;&lt;b style=&quot;&quot;&gt;&lt;br&gt;&lt;/b&gt;&lt;/font&gt;&lt;/div&gt;&lt;div style=&quot;font-size: 16px;&quot;&gt;&lt;font style=&quot;font-size: 16px;&quot;&gt;&lt;b style=&quot;&quot;&gt;&lt;br&gt;&lt;/b&gt;&lt;/font&gt;&lt;/div&gt;&lt;div style=&quot;font-size: 16px;&quot;&gt;&lt;font style=&quot;font-size: 16px;&quot;&gt;&lt;b style=&quot;&quot;&gt;&lt;br&gt;&lt;/b&gt;&lt;/font&gt;&lt;/div&gt;&lt;div style=&quot;font-size: 16px;&quot;&gt;&lt;font style=&quot;font-size: 16px;&quot;&gt;&lt;b style=&quot;&quot;&gt;&lt;br&gt;&lt;/b&gt;&lt;/font&gt;&lt;/div&gt;&lt;font style=&quot;font-size: 18px;&quot;&gt;ArtifactRestoration&lt;/font&gt;&lt;/b&gt;&lt;br&gt;&lt;span style=&quot;font-size: 16px;&quot;&gt;- restorerName: String&lt;/span&gt;&lt;br&gt;&lt;span style=&quot;font-size: 16px;&quot;&gt;- restorationDate: Date&lt;/span&gt;&lt;br&gt;&lt;span style=&quot;font-size: 16px;&quot;&gt;- restorationType: String&lt;/span&gt;&lt;br&gt;&lt;span style=&quot;font-size: 16px;&quot;&gt;- notes: String&lt;/span&gt;&lt;br&gt;&lt;span style=&quot;font-size: 16px;&quot;&gt;- exhibitName: String&lt;/span&gt;&lt;br&gt;&lt;br&gt;&lt;span style=&quot;font-size: 16px;&quot;&gt;+ scheduleRestoration(date: Date): void&lt;/span&gt;&lt;br&gt;&lt;span style=&quot;font-size: 16px;&quot;&gt;+ completeRestoration(): void&lt;/span&gt;&lt;br&gt;&lt;span style=&quot;font-size: 16px;&quot;&gt;+ assignArtifact(e: Exhibit): void&lt;/span&gt;&lt;br&gt;&lt;span style=&quot;font-size: 16px;&quot;&gt;+ getRestorationInfo(): String&lt;/span&gt;&lt;br&gt;&lt;span style=&quot;font-size: 16px;&quot;&gt;+ addNotes(note: String): void&lt;/span&gt;&lt;/font&gt;" style="shape=swimlane;whiteSpace=wrap;html=1;startSize=30;" parent="1" vertex="1">
          <mxGeometry x="300" y="610" width="240" height="270" as="geometry" />
        </mxCell>
        <mxCell id="11" style="endArrow=diamond;" parent="1" source="2" target="3" edge="1">
          <mxGeometry relative="1" as="geometry" />
        </mxCell>
        <mxCell id="13" style="endArrow=diamond;" parent="1" source="5" target="6" edge="1">
          <mxGeometry relative="1" as="geometry" />
        </mxCell>
        <mxCell id="14" style="endArrow=block;" parent="1" source="9" target="8" edge="1">
          <mxGeometry relative="1" as="geometry" />
        </mxCell>
        <mxCell id="15" style="endArrow=open;" parent="1" source="6" target="7" edge="1">
          <mxGeometry relative="1" as="geometry" />
        </mxCell>
        <mxCell id="16" style="endArrow=open;" parent="1" source="2" target="8" edge="1">
          <mxGeometry relative="1" as="geometry" />
        </mxCell>
        <mxCell id="17" style="endArrow=open;dashed=1;" parent="1" source="4" target="10" edge="1">
          <mxGeometry relative="1" as="geometry" />
        </mxCell>
      </root>
    </mxGraphModel>
  </diagram>
  <diagram id="PRo-6DpoMpSSY9jb_oeo" name="Сторінка-4">
    <mxGraphModel dx="1210" dy="2230" grid="1" gridSize="10" guides="1" tooltips="1" connect="1" arrows="1" fold="1" page="1" pageScale="1" pageWidth="827" pageHeight="1169" math="0" shadow="0">
      <root>
        <mxCell id="0" />
        <mxCell id="1" parent="0" />
        <mxCell id="KRhxl1TVJQ1nrF5PuNF3-23" value="" style="ellipse;fillColor=#000000;strokeColor=#000000;strokeWidth=2;" parent="1" vertex="1">
          <mxGeometry x="1250" y="10" width="20" height="20" as="geometry" />
        </mxCell>
        <mxCell id="KRhxl1TVJQ1nrF5PuNF3-24" value="Запуск системи&#xa;&#xa;OnEntry / ініціалізація_бази_даних&#xa;Do / завантаження_конфігурації&#xa;OnExit / логування_запуску" style="rounded=1;whiteSpace=wrap;html=1;strokeWidth=2;fillColor=#e1d5e7;strokeColor=#9673a6;" parent="1" vertex="1">
          <mxGeometry x="1510" y="-120" width="200" height="80" as="geometry" />
        </mxCell>
        <mxCell id="KRhxl1TVJQ1nrF5PuNF3-25" value="Прийом відвідувачів&#xa;&#xa;OnEntry / відкриття_касових_вікон&#xa;Do / обслуговування_відвідувачів&#xa;OnEvent / оновлення_статистики" style="rounded=1;whiteSpace=wrap;html=1;strokeWidth=2;fillColor=#d5e8d4;strokeColor=#82b366;" parent="1" vertex="1">
          <mxGeometry x="1868" y="140" width="200" height="80" as="geometry" />
        </mxCell>
        <mxCell id="KRhxl1TVJQ1nrF5PuNF3-29" value="Процедури закриття&#xa;&#xa;OnEntry / завершення_обслуговування&#xa;Do / підрахунок_денної_виручки&#xa;OnExit / створення_звітів" style="rounded=1;whiteSpace=wrap;html=1;strokeWidth=2;fillColor=#dae8fc;strokeColor=#6c8ebf;" parent="1" vertex="1">
          <mxGeometry x="2000" y="505" width="200" height="85" as="geometry" />
        </mxCell>
        <mxCell id="KRhxl1TVJQ1nrF5PuNF3-30" value="Нічний режим&#xa;&#xa;OnEntry / активація_охоронної_системи&#xa;Do / моніторинг_безпеки&#xa;OnEvent / реагування_на_тривоги" style="rounded=1;whiteSpace=wrap;html=1;strokeWidth=2;fillColor=#e1d5e7;strokeColor=#9673a6;" parent="1" vertex="1">
          <mxGeometry x="1680" y="665" width="200" height="95" as="geometry" />
        </mxCell>
        <mxCell id="KRhxl1TVJQ1nrF5PuNF3-31" value="" style="ellipse;fillColor=#000000;strokeColor=#000000;strokeWidth=2;" parent="1" vertex="1">
          <mxGeometry x="1770" y="815" width="20" height="20" as="geometry" />
        </mxCell>
        <mxCell id="KRhxl1TVJQ1nrF5PuNF3-32" value="" style="ellipse;fillColor=none;strokeColor=#000000;strokeWidth=2;" parent="1" vertex="1">
          <mxGeometry x="1765" y="810" width="30" height="30" as="geometry" />
        </mxCell>
        <mxCell id="KRhxl1TVJQ1nrF5PuNF3-33" value="старт_системи / ініціалізація_компонентів" style="endArrow=classic;html=1;strokeWidth=2;" parent="1" source="KRhxl1TVJQ1nrF5PuNF3-23" target="KRhxl1TVJQ1nrF5PuNF3-24" edge="1">
          <mxGeometry relative="1" as="geometry" />
        </mxCell>
        <mxCell id="KRhxl1TVJQ1nrF5PuNF3-34" value="завершення_запуску [час_відкриття_музею] / відкриття_для_відвідувачів" style="endArrow=classic;html=1;strokeWidth=2;" parent="1" source="KRhxl1TVJQ1nrF5PuNF3-24" target="KRhxl1TVJQ1nrF5PuNF3-25" edge="1">
          <mxGeometry relative="1" as="geometry" />
        </mxCell>
        <mxCell id="KRhxl1TVJQ1nrF5PuNF3-41" value="час_закриття / початок_процедур_закриття" style="endArrow=classic;html=1;strokeWidth=2;" parent="1" source="KRhxl1TVJQ1nrF5PuNF3-25" target="KRhxl1TVJQ1nrF5PuNF3-29" edge="1">
          <mxGeometry relative="1" as="geometry" />
        </mxCell>
        <mxCell id="KRhxl1TVJQ1nrF5PuNF3-42" value="завершення_закриття / активація_нічного_режиму" style="endArrow=classic;html=1;strokeWidth=2;" parent="1" source="KRhxl1TVJQ1nrF5PuNF3-29" target="KRhxl1TVJQ1nrF5PuNF3-30" edge="1">
          <mxGeometry relative="1" as="geometry" />
        </mxCell>
        <mxCell id="KRhxl1TVJQ1nrF5PuNF3-43" value="новий_день [час_відкриття_музею] / підготовка_до_відкриття" style="endArrow=classic;html=1;strokeWidth=2;" parent="1" source="KRhxl1TVJQ1nrF5PuNF3-30" target="KRhxl1TVJQ1nrF5PuNF3-24" edge="1">
          <mxGeometry relative="1" as="geometry">
            <Array as="points">
              <mxPoint x="1460" y="590" />
              <mxPoint x="1460" y="110" />
            </Array>
          </mxGeometry>
        </mxCell>
        <mxCell id="KRhxl1TVJQ1nrF5PuNF3-44" value="системне_вимкнення / завершення_всіх_процесів" style="endArrow=classic;html=1;strokeWidth=2;" parent="1" source="KRhxl1TVJQ1nrF5PuNF3-30" target="KRhxl1TVJQ1nrF5PuNF3-31" edge="1">
          <mxGeometry relative="1" as="geometry" />
        </mxCell>
        <mxCell id="KRhxl1TVJQ1nrF5PuNF3-45" value="новий_відвідувач / реєстрація_відвідувача" style="endArrow=classic;html=1;strokeWidth=2;curved=1;" parent="1" source="KRhxl1TVJQ1nrF5PuNF3-25" target="KRhxl1TVJQ1nrF5PuNF3-25" edge="1">
          <mxGeometry relative="1" as="geometry">
            <Array as="points">
              <mxPoint x="1760" y="230" />
            </Array>
          </mxGeometry>
        </mxCell>
        <mxCell id="KRhxl1TVJQ1nrF5PuNF3-46" value="спрацювання_сигналізації [ложна_тривога] / скидання_тривоги" style="endArrow=classic;html=1;strokeWidth=2;curved=1;" parent="1" source="KRhxl1TVJQ1nrF5PuNF3-30" target="KRhxl1TVJQ1nrF5PuNF3-30" edge="1">
          <mxGeometry relative="1" as="geometry">
            <Array as="points">
              <mxPoint x="1760" y="590" />
            </Array>
          </mxGeometry>
        </mxCell>
      </root>
    </mxGraphModel>
  </diagram>
  <diagram id="nj6m51JcnTJFiP1QGbHD" name="Сторінка-5">
    <mxGraphModel dx="2505" dy="2043" grid="1" gridSize="10" guides="1" tooltips="1" connect="1" arrows="1" fold="1" page="1" pageScale="1" pageWidth="827" pageHeight="1169" math="0" shadow="0">
      <root>
        <mxCell id="0" />
        <mxCell id="1" parent="0" />
        <mxCell id="fIvP3I7YbE7UNaWT6doD-1" value="" style="ellipse;fillColor=#000000;strokeColor=#000000;strokeWidth=2;" parent="1" vertex="1">
          <mxGeometry x="110" y="-10" width="20" height="20" as="geometry" />
        </mxCell>
        <mxCell id="fIvP3I7YbE7UNaWT6doD-2" value="Очікування в черзі&#xa;&#xa;OnEntry / приєднання_до_черги&#xa;Do / очікування_обслуговування&#xa;OnEvent / отримання_інформації_про_час" style="rounded=1;whiteSpace=wrap;html=1;strokeWidth=2;fillColor=#fff2cc;strokeColor=#d6b656;" parent="1" vertex="1">
          <mxGeometry x="190" y="60" width="190" height="90" as="geometry" />
        </mxCell>
        <mxCell id="fIvP3I7YbE7UNaWT6doD-3" value="Придбання квитка&#xa;&#xa;OnEntry / підхід_до_каси&#xa;Do / вибір_типу_квитка&#xa;OnExit / отримання_квитка" style="rounded=1;whiteSpace=wrap;html=1;strokeWidth=2;fillColor=#d5e8d4;strokeColor=#82b366;" parent="1" vertex="1">
          <mxGeometry x="-80" y="240" width="200" height="80" as="geometry" />
        </mxCell>
        <mxCell id="fIvP3I7YbE7UNaWT6doD-4" value="Проходження контролю безпеки&#xa;&#xa;OnEntry / представлення_квитка&#xa;Do / проходження_огляду&#xa;OnExit / отримання_дозволу_на_вхід" style="rounded=1;whiteSpace=wrap;html=1;strokeWidth=2;fillColor=#dae8fc;strokeColor=#6c8ebf;" parent="1" vertex="1">
          <mxGeometry x="-60" y="410" width="200" height="90" as="geometry" />
        </mxCell>
        <mxCell id="fIvP3I7YbE7UNaWT6doD-5" value="Відвідування виставки&#xa;&#xa;OnEntry / вхід_до_виставкової_зали&#xa;Do / огляд_експонатів&#xa;OnEvent / отримання_інформації_про_експонат" style="rounded=1;whiteSpace=wrap;html=1;strokeWidth=2;fillColor=#e1d5e7;strokeColor=#9673a6;" parent="1" vertex="1">
          <mxGeometry x="240" y="670" width="220" height="90" as="geometry" />
        </mxCell>
        <mxCell id="fIvP3I7YbE7UNaWT6doD-8" value="Покидання музею&#xa;&#xa;OnEntry / завершення_огляду&#xa;Do / рух_до_виходу&#xa;OnExit / залишення_території_музею" style="rounded=1;whiteSpace=wrap;html=1;strokeWidth=2;fillColor=#ffcccc;strokeColor=#ff6666;" parent="1" vertex="1">
          <mxGeometry x="600" y="370" width="200" height="90" as="geometry" />
        </mxCell>
        <mxCell id="fIvP3I7YbE7UNaWT6doD-9" value="" style="ellipse;fillColor=#000000;strokeColor=#000000;strokeWidth=2;" parent="1" vertex="1">
          <mxGeometry x="685" y="235" width="20" height="20" as="geometry" />
        </mxCell>
        <mxCell id="fIvP3I7YbE7UNaWT6doD-10" value="" style="ellipse;fillColor=none;strokeColor=#000000;strokeWidth=2;" parent="1" vertex="1">
          <mxGeometry x="680" y="230" width="30" height="30" as="geometry" />
        </mxCell>
        <mxCell id="fIvP3I7YbE7UNaWT6doD-11" value="прибуття_до_музею [музей_відкритий] / приєднання_до_черги" style="endArrow=classic;html=1;strokeWidth=2;" parent="1" source="fIvP3I7YbE7UNaWT6doD-1" target="fIvP3I7YbE7UNaWT6doD-2" edge="1">
          <mxGeometry relative="1" as="geometry" />
        </mxCell>
        <mxCell id="fIvP3I7YbE7UNaWT6doD-12" value="підійшла_черга / підхід_до_касира" style="endArrow=classic;html=1;strokeWidth=2;" parent="1" source="fIvP3I7YbE7UNaWT6doD-2" target="fIvP3I7YbE7UNaWT6doD-3" edge="1">
          <mxGeometry relative="1" as="geometry" />
        </mxCell>
        <mxCell id="fIvP3I7YbE7UNaWT6doD-13" value="успішна_покупка [квиток_придбаний] / рух_до_контролю" style="endArrow=classic;html=1;strokeWidth=2;" parent="1" source="fIvP3I7YbE7UNaWT6doD-3" target="fIvP3I7YbE7UNaWT6doD-4" edge="1">
          <mxGeometry relative="1" as="geometry" />
        </mxCell>
        <mxCell id="fIvP3I7YbE7UNaWT6doD-14" value="успішне_проходження_контролю / вхід_до_музею" style="endArrow=classic;html=1;strokeWidth=2;" parent="1" source="fIvP3I7YbE7UNaWT6doD-4" target="fIvP3I7YbE7UNaWT6doD-5" edge="1">
          <mxGeometry x="-0.4656" y="-3" relative="1" as="geometry">
            <mxPoint y="-1" as="offset" />
          </mxGeometry>
        </mxCell>
        <mxCell id="fIvP3I7YbE7UNaWT6doD-19" value="завершення_огляду / рух_до_виходу" style="endArrow=classic;html=1;strokeWidth=2;" parent="1" source="fIvP3I7YbE7UNaWT6doD-5" target="fIvP3I7YbE7UNaWT6doD-8" edge="1">
          <mxGeometry x="0.1151" y="-12" relative="1" as="geometry">
            <Array as="points">
              <mxPoint x="510" y="580" />
            </Array>
            <mxPoint as="offset" />
          </mxGeometry>
        </mxCell>
        <mxCell id="fIvP3I7YbE7UNaWT6doD-20" value="вихід_з_музею / завершення_відвідування" style="endArrow=classic;html=1;strokeWidth=2;" parent="1" source="fIvP3I7YbE7UNaWT6doD-8" target="fIvP3I7YbE7UNaWT6doD-9" edge="1">
          <mxGeometry relative="1" as="geometry" />
        </mxCell>
        <mxCell id="fIvP3I7YbE7UNaWT6doD-21" value="відмова_від_покупки [квиток_не_придбаний] / вихід_без_відвідування" style="endArrow=classic;html=1;strokeWidth=2;" parent="1" source="fIvP3I7YbE7UNaWT6doD-3" target="fIvP3I7YbE7UNaWT6doD-8" edge="1">
          <mxGeometry relative="1" as="geometry" />
        </mxCell>
        <mxCell id="fIvP3I7YbE7UNaWT6doD-22" value="неуспішне_проходження_контролю / вихід_через_відмову_доступу" style="endArrow=classic;html=1;strokeWidth=2;" parent="1" source="fIvP3I7YbE7UNaWT6doD-4" target="fIvP3I7YbE7UNaWT6doD-8" edge="1">
          <mxGeometry relative="1" as="geometry">
            <Array as="points">
              <mxPoint x="540" y="460" />
            </Array>
          </mxGeometry>
        </mxCell>
        <mxCell id="fIvP3I7YbE7UNaWT6doD-23" value="перехід_до_іншої_зали / зміна_виставкової_зали" style="endArrow=classic;html=1;strokeWidth=2;curved=1;" parent="1" source="fIvP3I7YbE7UNaWT6doD-5" target="fIvP3I7YbE7UNaWT6doD-5" edge="1">
          <mxGeometry relative="1" as="geometry">
            <Array as="points">
              <mxPoint x="240" y="580" />
            </Array>
          </mxGeometry>
        </mxCell>
        <mxCell id="fIvP3I7YbE7UNaWT6doD-24" value="переміщення_в_черзі / зміна_позиції" style="endArrow=classic;html=1;strokeWidth=2;curved=1;" parent="1" source="fIvP3I7YbE7UNaWT6doD-2" target="fIvP3I7YbE7UNaWT6doD-2" edge="1">
          <mxGeometry relative="1" as="geometry">
            <Array as="points">
              <mxPoint x="540" y="220" />
            </Array>
          </mxGeometry>
        </mxCell>
      </root>
    </mxGraphModel>
  </diagram>
  <diagram id="iR_6muyyODSWxYpBqRto" name="Сторінка-6">
    <mxGraphModel dx="3080" dy="743" grid="1" gridSize="10" guides="1" tooltips="1" connect="1" arrows="1" fold="1" page="1" pageScale="1" pageWidth="827" pageHeight="1169" math="0" shadow="0">
      <root>
        <mxCell id="0" />
        <mxCell id="1" parent="0" />
        <mxCell id="zzm06umw4KtHLApRWymi-26" value="" style="ellipse;fillColor=#000000;strokeColor=#000000;" vertex="1" parent="1">
          <mxGeometry x="-1440" y="110" width="20" height="20" as="geometry" />
        </mxCell>
        <mxCell id="zzm06umw4KtHLApRWymi-27" value="Автентифікація&#xa;&#xa;OnEntry/Відображення форми входу&#xa;Do/Перевірка облікових даних&#xa;OnExit/Встановлення сесії" style="rounded=1;whiteSpace=wrap;html=1;fontSize=11;align=left;verticalAlign=top;spacing=8;" vertex="1" parent="1">
          <mxGeometry x="-1260" y="80" width="200" height="100" as="geometry" />
        </mxCell>
        <mxCell id="zzm06umw4KtHLApRWymi-28" value="Головне меню&#xa;&#xa;OnEntry/Завантаження інтерфейсу&#xa;Do/Відображення доступних опцій&#xa;OnEvent/Обробка вибору користувача" style="rounded=1;whiteSpace=wrap;html=1;fontSize=11;align=left;verticalAlign=top;spacing=8;" vertex="1" parent="1">
          <mxGeometry x="-690" y="80" width="200" height="100" as="geometry" />
        </mxCell>
        <mxCell id="zzm06umw4KtHLApRWymi-29" value="Перегляд каталогу експонатів&#xa;&#xa;OnEntry/Завантаження списку експонатів&#xa;Do/Відображення фільтрованих даних&#xa;OnEvent/Оновлення при зміні фільтрів" style="rounded=1;whiteSpace=wrap;html=1;fontSize=11;align=left;verticalAlign=top;spacing=8;" vertex="1" parent="1">
          <mxGeometry x="-1070" y="360" width="200" height="120" as="geometry" />
        </mxCell>
        <mxCell id="zzm06umw4KtHLApRWymi-31" value="Додавання нового експонату&#xa;&#xa;OnEntry/Ініціалізація порожньої форми&#xa;Do/Перевірка обов&#39;язкових полів&#xa;OnExit/Створення запису в БД" style="rounded=1;whiteSpace=wrap;html=1;fontSize=11;align=left;verticalAlign=top;spacing=8;" vertex="1" parent="1">
          <mxGeometry x="-540" y="360" width="200" height="100" as="geometry" />
        </mxCell>
        <mxCell id="zzm06umw4KtHLApRWymi-34" value="" style="ellipse;fillColor=#000000;strokeColor=#000000;" vertex="1" parent="1">
          <mxGeometry x="-255" y="105" width="20" height="20" as="geometry" />
        </mxCell>
        <mxCell id="zzm06umw4KtHLApRWymi-35" value="" style="ellipse;fillColor=none;strokeColor=#000000;" vertex="1" parent="1">
          <mxGeometry x="-260" y="100" width="30" height="30" as="geometry" />
        </mxCell>
        <mxCell id="zzm06umw4KtHLApRWymi-36" value="" style="endArrow=classic;html=1;rounded=0;exitX=1;exitY=0.5;entryX=0;entryY=0.5;" edge="1" parent="1" source="zzm06umw4KtHLApRWymi-26" target="zzm06umw4KtHLApRWymi-27">
          <mxGeometry width="50" height="50" relative="1" as="geometry">
            <mxPoint x="-820" y="360" as="sourcePoint" />
            <mxPoint x="-770" y="310" as="targetPoint" />
          </mxGeometry>
        </mxCell>
        <mxCell id="zzm06umw4KtHLApRWymi-37" value="успішна_автентифікація[дані_коректні]/створити_робочу_сесію" style="endArrow=classic;html=1;rounded=0;exitX=1;exitY=0.5;entryX=0;entryY=0.5;fontSize=10;" edge="1" parent="1" source="zzm06umw4KtHLApRWymi-27" target="zzm06umw4KtHLApRWymi-28">
          <mxGeometry width="50" height="50" relative="1" as="geometry">
            <mxPoint x="-820" y="360" as="sourcePoint" />
            <mxPoint x="-770" y="310" as="targetPoint" />
          </mxGeometry>
        </mxCell>
        <mxCell id="zzm06umw4KtHLApRWymi-38" value="вибрати_каталог/ініціалізувати_фільтри" style="endArrow=classic;html=1;rounded=0;exitX=0;exitY=1;entryX=0.5;entryY=0;fontSize=10;" edge="1" parent="1" source="zzm06umw4KtHLApRWymi-28" target="zzm06umw4KtHLApRWymi-29">
          <mxGeometry x="0.2166" y="1" width="50" height="50" relative="1" as="geometry">
            <mxPoint x="-820" y="360" as="sourcePoint" />
            <mxPoint x="-770" y="310" as="targetPoint" />
            <mxPoint x="-1" as="offset" />
          </mxGeometry>
        </mxCell>
        <mxCell id="zzm06umw4KtHLApRWymi-40" value="додати_експонат/створити_новий_ідентифікатор" style="endArrow=classic;html=1;rounded=0;exitX=1;exitY=1;entryX=0.5;entryY=0;fontSize=10;" edge="1" parent="1" source="zzm06umw4KtHLApRWymi-28" target="zzm06umw4KtHLApRWymi-31">
          <mxGeometry width="50" height="50" relative="1" as="geometry">
            <mxPoint x="-820" y="360" as="sourcePoint" />
            <mxPoint x="-770" y="310" as="targetPoint" />
            <Array as="points" />
          </mxGeometry>
        </mxCell>
        <mxCell id="zzm06umw4KtHLApRWymi-42" value="експонат_створено[всі_поля_заповнені]/додати_до_каталогу" style="endArrow=classic;html=1;rounded=0;exitX=0;exitY=0.5;entryX=1;entryY=0.5;fontSize=10;entryDx=0;entryDy=0;exitDx=0;exitDy=0;" edge="1" parent="1" source="zzm06umw4KtHLApRWymi-31" target="zzm06umw4KtHLApRWymi-29">
          <mxGeometry width="50" height="50" relative="1" as="geometry">
            <mxPoint x="-820" y="360" as="sourcePoint" />
            <mxPoint x="-770" y="310" as="targetPoint" />
          </mxGeometry>
        </mxCell>
        <mxCell id="zzm06umw4KtHLApRWymi-43" value="повернутися_в_меню/зберегти_стан_фільтрів" style="endArrow=classic;html=1;rounded=0;exitX=0.5;exitY=0;entryX=0;entryY=1;fontSize=10;" edge="1" parent="1" source="zzm06umw4KtHLApRWymi-29" target="zzm06umw4KtHLApRWymi-28">
          <mxGeometry x="0.4152" y="15" width="50" height="50" relative="1" as="geometry">
            <mxPoint x="-820" y="360" as="sourcePoint" />
            <mxPoint x="-770" y="310" as="targetPoint" />
            <mxPoint as="offset" />
          </mxGeometry>
        </mxCell>
        <mxCell id="zzm06umw4KtHLApRWymi-49" value="вийти/очистити_сесію" style="endArrow=classic;html=1;rounded=0;exitX=1;exitY=0.5;entryX=0;entryY=0.5;fontSize=10;" edge="1" parent="1" source="zzm06umw4KtHLApRWymi-28" target="zzm06umw4KtHLApRWymi-34">
          <mxGeometry width="50" height="50" relative="1" as="geometry">
            <mxPoint x="-820" y="360" as="sourcePoint" />
            <mxPoint x="-770" y="310" as="targetPoint" />
          </mxGeometry>
        </mxCell>
        <mxCell id="GBRUDJtGmLkNpPDXi4es-2" value="" style="curved=1;endArrow=classic;html=1;rounded=0;exitX=0.015;exitY=0.63;exitDx=0;exitDy=0;exitPerimeter=0;entryX=0;entryY=0.37;entryDx=0;entryDy=0;entryPerimeter=0;" edge="1" parent="1" source="zzm06umw4KtHLApRWymi-29" target="zzm06umw4KtHLApRWymi-29">
          <mxGeometry width="50" height="50" relative="1" as="geometry">
            <mxPoint x="-1150" y="440" as="sourcePoint" />
            <mxPoint x="-1100" y="390" as="targetPoint" />
            <Array as="points">
              <mxPoint x="-1120" y="460" />
              <mxPoint x="-1150" y="390" />
            </Array>
          </mxGeometry>
        </mxCell>
        <mxCell id="GBRUDJtGmLkNpPDXi4es-3" value="&lt;span style=&quot;color: rgb(0, 0, 0); font-family: Helvetica; font-size: 10px; font-style: normal; font-variant-ligatures: normal; font-variant-caps: normal; font-weight: 400; letter-spacing: normal; orphans: 2; text-align: center; text-indent: 0px; text-transform: none; widows: 2; word-spacing: 0px; -webkit-text-stroke-width: 0px; white-space: nowrap; background-color: rgb(255, 255, 255); text-decoration-thickness: initial; text-decoration-style: initial; text-decoration-color: initial; display: inline !important; float: none;&quot;&gt;застосувати_фільтр[фільтр_валідний]/оновити_список_експонатів&lt;/span&gt;" style="text;whiteSpace=wrap;html=1;" vertex="1" parent="1">
          <mxGeometry x="-1440" y="410" width="340" height="40" as="geometry" />
        </mxCell>
      </root>
    </mxGraphModel>
  </diagram>
  <diagram name="Покупка квитка" id="sFnwu2OGgv1mvFfsfDir">
    <mxGraphModel dx="1426" dy="743" grid="1" gridSize="10" guides="1" tooltips="1" connect="1" arrows="1" fold="1" page="1" pageScale="1" pageWidth="827" pageHeight="1169" math="0" shadow="0">
      <root>
        <mxCell id="0" />
        <mxCell id="1" parent="0" />
        <mxCell id="start1" value="" style="ellipse;whiteSpace=wrap;html=1;aspect=fixed;fillColor=#000000;" parent="1" vertex="1">
          <mxGeometry x="390" y="40" width="20" height="20" as="geometry" />
        </mxCell>
        <mxCell id="activity1" value="Вибрати тип квитка" style="rounded=1;whiteSpace=wrap;html=1;fillColor=#dae8fc;strokeColor=#6c8ebf;" parent="1" vertex="1">
          <mxGeometry x="330" y="100" width="140" height="60" as="geometry" />
        </mxCell>
        <mxCell id="decision1" value="" style="rhombus;whiteSpace=wrap;html=1;fillColor=#fff2cc;strokeColor=#d6b656;" parent="1" vertex="1">
          <mxGeometry x="380" y="200" width="40" height="40" as="geometry" />
        </mxCell>
        <mxCell id="activity2" value="Перевірити наявність місць" style="rounded=1;whiteSpace=wrap;html=1;fillColor=#dae8fc;strokeColor=#6c8ebf;" parent="1" vertex="1">
          <mxGeometry x="330" y="280" width="140" height="60" as="geometry" />
        </mxCell>
        <mxCell id="decision2" value="" style="rhombus;whiteSpace=wrap;html=1;fillColor=#fff2cc;strokeColor=#d6b656;" parent="1" vertex="1">
          <mxGeometry x="380" y="380" width="40" height="40" as="geometry" />
        </mxCell>
        <mxCell id="activity3" value="Повідомити про відсутність місць" style="rounded=1;whiteSpace=wrap;html=1;fillColor=#f8cecc;strokeColor=#b85450;" parent="1" vertex="1">
          <mxGeometry x="550" y="370" width="140" height="60" as="geometry" />
        </mxCell>
        <mxCell id="activity4" value="Ввести особисті дані" style="rounded=1;whiteSpace=wrap;html=1;fillColor=#dae8fc;strokeColor=#6c8ebf;" parent="1" vertex="1">
          <mxGeometry x="330" y="480" width="140" height="60" as="geometry" />
        </mxCell>
        <mxCell id="activity5" value="Вибрати спосіб оплати" style="rounded=1;whiteSpace=wrap;html=1;fillColor=#dae8fc;strokeColor=#6c8ebf;" parent="1" vertex="1">
          <mxGeometry x="330" y="580" width="140" height="60" as="geometry" />
        </mxCell>
        <mxCell id="sync1" value="" style="shape=line;html=1;strokeWidth=6;strokeColor=#000000;" parent="1" vertex="1">
          <mxGeometry x="350" y="680" width="100" height="10" as="geometry" />
        </mxCell>
        <mxCell id="activity6" value="Обробити платіж" style="rounded=1;whiteSpace=wrap;html=1;fillColor=#dae8fc;strokeColor=#6c8ebf;" parent="1" vertex="1">
          <mxGeometry x="250" y="730" width="140" height="60" as="geometry" />
        </mxCell>
        <mxCell id="activity7" value="Згенерувати квиток" style="rounded=1;whiteSpace=wrap;html=1;fillColor=#dae8fc;strokeColor=#6c8ebf;" parent="1" vertex="1">
          <mxGeometry x="410" y="730" width="140" height="60" as="geometry" />
        </mxCell>
        <mxCell id="sync2" value="" style="shape=line;html=1;strokeWidth=6;strokeColor=#000000;" parent="1" vertex="1">
          <mxGeometry x="350" y="830" width="100" height="10" as="geometry" />
        </mxCell>
        <mxCell id="activity8" value="Відправити квиток на email" style="rounded=1;whiteSpace=wrap;html=1;fillColor=#dae8fc;strokeColor=#6c8ebf;" parent="1" vertex="1">
          <mxGeometry x="330" y="870" width="140" height="60" as="geometry" />
        </mxCell>
        <mxCell id="end1" value="" style="ellipse;whiteSpace=wrap;html=1;aspect=fixed;fillColor=#000000;" parent="1" vertex="1">
          <mxGeometry x="390" y="970" width="20" height="20" as="geometry" />
        </mxCell>
        <mxCell id="end1_outer" value="" style="ellipse;whiteSpace=wrap;html=1;aspect=fixed;fillColor=none;strokeColor=#000000;" parent="1" vertex="1">
          <mxGeometry x="385" y="965" width="30" height="30" as="geometry" />
        </mxCell>
        <mxCell id="edge1" value="" style="edgeStyle=orthogonalEdgeStyle;rounded=0;orthogonalLoop=1;jettySize=auto;html=1;" parent="1" source="start1" target="activity1" edge="1">
          <mxGeometry relative="1" as="geometry" />
        </mxCell>
        <mxCell id="edge2" value="" style="edgeStyle=orthogonalEdgeStyle;rounded=0;orthogonalLoop=1;jettySize=auto;html=1;" parent="1" source="activity1" target="decision1" edge="1">
          <mxGeometry relative="1" as="geometry" />
        </mxCell>
        <mxCell id="edge3" value="[тип обрано]" style="edgeStyle=orthogonalEdgeStyle;rounded=0;orthogonalLoop=1;jettySize=auto;html=1;" parent="1" source="decision1" target="activity2" edge="1">
          <mxGeometry relative="1" as="geometry" />
        </mxCell>
        <mxCell id="edge4" value="" style="edgeStyle=orthogonalEdgeStyle;rounded=0;orthogonalLoop=1;jettySize=auto;html=1;" parent="1" source="activity2" target="decision2" edge="1">
          <mxGeometry relative="1" as="geometry" />
        </mxCell>
        <mxCell id="edge5" value="[місця відсутні]" style="edgeStyle=orthogonalEdgeStyle;rounded=0;orthogonalLoop=1;jettySize=auto;html=1;" parent="1" source="decision2" target="activity3" edge="1">
          <mxGeometry relative="1" as="geometry" />
        </mxCell>
        <mxCell id="edge6" value="[місця є]" style="edgeStyle=orthogonalEdgeStyle;rounded=0;orthogonalLoop=1;jettySize=auto;html=1;" parent="1" source="decision2" target="activity4" edge="1">
          <mxGeometry relative="1" as="geometry" />
        </mxCell>
        <mxCell id="edge7" value="" style="edgeStyle=orthogonalEdgeStyle;rounded=0;orthogonalLoop=1;jettySize=auto;html=1;" parent="1" source="activity4" target="activity5" edge="1">
          <mxGeometry relative="1" as="geometry" />
        </mxCell>
        <mxCell id="edge8" value="" style="edgeStyle=orthogonalEdgeStyle;rounded=0;orthogonalLoop=1;jettySize=auto;html=1;" parent="1" source="activity5" target="sync1" edge="1">
          <mxGeometry relative="1" as="geometry" />
        </mxCell>
        <mxCell id="edge9" value="" style="edgeStyle=orthogonalEdgeStyle;rounded=0;orthogonalLoop=1;jettySize=auto;html=1;" parent="1" source="sync1" target="activity6" edge="1">
          <mxGeometry relative="1" as="geometry" />
        </mxCell>
        <mxCell id="edge10" value="" style="edgeStyle=orthogonalEdgeStyle;rounded=0;orthogonalLoop=1;jettySize=auto;html=1;" parent="1" source="sync1" target="activity7" edge="1">
          <mxGeometry relative="1" as="geometry" />
        </mxCell>
        <mxCell id="edge11" value="" style="edgeStyle=orthogonalEdgeStyle;rounded=0;orthogonalLoop=1;jettySize=auto;html=1;" parent="1" source="activity6" target="sync2" edge="1">
          <mxGeometry relative="1" as="geometry" />
        </mxCell>
        <mxCell id="edge12" value="" style="edgeStyle=orthogonalEdgeStyle;rounded=0;orthogonalLoop=1;jettySize=auto;html=1;" parent="1" source="activity7" target="sync2" edge="1">
          <mxGeometry relative="1" as="geometry" />
        </mxCell>
        <mxCell id="edge13" value="" style="edgeStyle=orthogonalEdgeStyle;rounded=0;orthogonalLoop=1;jettySize=auto;html=1;" parent="1" source="sync2" target="activity8" edge="1">
          <mxGeometry relative="1" as="geometry" />
        </mxCell>
        <mxCell id="edge14" value="" style="edgeStyle=orthogonalEdgeStyle;rounded=0;orthogonalLoop=1;jettySize=auto;html=1;" parent="1" source="activity8" target="end1" edge="1">
          <mxGeometry relative="1" as="geometry" />
        </mxCell>
        <mxCell id="edge15" value="[повторити вибір]" style="edgeStyle=orthogonalEdgeStyle;rounded=0;orthogonalLoop=1;jettySize=auto;html=1;exitX=0;exitY=0.5;exitDx=0;exitDy=0;entryX=0;entryY=0.5;entryDx=0;entryDy=0;" parent="1" source="decision1" target="activity1" edge="1">
          <mxGeometry relative="1" as="geometry">
            <Array as="points">
              <mxPoint x="300" y="220" />
              <mxPoint x="300" y="130" />
            </Array>
          </mxGeometry>
        </mxCell>
        <mxCell id="edge16" value="" style="edgeStyle=orthogonalEdgeStyle;rounded=0;orthogonalLoop=1;jettySize=auto;html=1;exitX=0.5;exitY=0;exitDx=0;exitDy=0;entryX=1;entryY=0.5;entryDx=0;entryDy=0;" parent="1" source="activity3" target="activity1" edge="1">
          <mxGeometry relative="1" as="geometry">
            <Array as="points">
              <mxPoint x="620" y="130" />
            </Array>
          </mxGeometry>
        </mxCell>
      </root>
    </mxGraphModel>
  </diagram>
  <diagram name="Бронювання екскурсії" id="Qjre79B5kK1nzHK8GOii">
    <mxGraphModel dx="1422" dy="834" grid="1" gridSize="10" guides="1" tooltips="1" connect="1" arrows="1" fold="1" page="1" pageScale="1" pageWidth="827" pageHeight="1169" math="0" shadow="0">
      <root>
        <mxCell id="0" />
        <mxCell id="1" parent="0" />
        <!-- Початковий стан -->
        <mxCell id="start2" value="" style="ellipse;whiteSpace=wrap;html=1;aspect=fixed;fillColor=#000000;" vertex="1" parent="1">
          <mxGeometry x="390" y="40" width="20" height="20" as="geometry" />
        </mxCell>
        <!-- Діяльність 1: Перегляд розкладу екскурсій -->
        <mxCell id="act2_1" value="Переглянути розклад екскурсій" style="rounded=1;whiteSpace=wrap;html=1;fillColor=#dae8fc;strokeColor=#6c8ebf;" vertex="1" parent="1">
          <mxGeometry x="320" y="100" width="160" height="60" as="geometry" />
        </mxCell>
        <!-- Діяльність 2: Вибір екскурсії -->
        <mxCell id="act2_2" value="Вибрати екскурсію" style="rounded=1;whiteSpace=wrap;html=1;fillColor=#dae8fc;strokeColor=#6c8ebf;" vertex="1" parent="1">
          <mxGeometry x="320" y="200" width="160" height="60" as="geometry" />
        </mxCell>
        <!-- Стан прийняття рішення -->
        <mxCell id="dec2_1" value="" style="rhombus;whiteSpace=wrap;html=1;fillColor=#fff2cc;strokeColor=#d6b656;" vertex="1" parent="1">
          <mxGeometry x="380" y="300" width="40" height="40" as="geometry" />
        </mxCell>
        <!-- Діяльність 3: Перевірка доступності -->
        <mxCell id="act2_3" value="Перевірити доступність екскурсії" style="rounded=1;whiteSpace=wrap;html=1;fillColor=#dae8fc;strokeColor=#6c8ebf;" vertex="1" parent="1">
          <mxGeometry x="320" y="380" width="160" height="60" as="geometry" />
        </mxCell>
        <!-- Стан прийняття рішення 2 -->
        <mxCell id="dec2_2" value="" style="rhombus;whiteSpace=wrap;html=1;fillColor=#fff2cc;strokeColor=#d6b656;" vertex="1" parent="1">
          <mxGeometry x="380" y="480" width="40" height="40" as="geometry" />
        </mxCell>
        <!-- Діяльність 4: Повідомлення про недоступність -->
        <mxCell id="act2_4" value="Повідомити про недоступність" style="rounded=1;whiteSpace=wrap;html=1;fillColor=#f8cecc;strokeColor=#b85450;" vertex="1" parent="1">
          <mxGeometry x="550" y="470" width="160" height="60" as="geometry" />
        </mxCell>
        <!-- Діяльність 5: Введення кількості учасників -->
        <mxCell id="act2_5" value="Ввести кількість учасників" style="rounded=1;whiteSpace=wrap;html=1;fillColor=#dae8fc;strokeColor=#6c8ebf;" vertex="1" parent="1">
          <mxGeometry x="320" y="570" width="160" height="60" as="geometry" />
        </mxCell>
        <!-- Діяльність 6: Введення контактних даних -->
        <mxCell id="act2_6" value="Ввести контактні дані" style="rounded=1;whiteSpace=wrap;html=1;fillColor=#dae8fc;strokeColor=#6c8ebf;" vertex="1" parent="1">
          <mxGeometry x="320" y="660" width="160" height="60" as="geometry" />
        </mxCell>
        <!-- Стан синхронізації -->
        <mxCell id="sync2_1" value="" style="shape=line;html=1;strokeWidth=6;strokeColor=#000000;" vertex="1" parent="1">
          <mxGeometry x="350" y="760" width="100" height="10" as="geometry" />
        </mxCell>
        <!-- Діяльність 7: Резервування місць -->
        <mxCell id="act2_7" value="Зарезервувати місця" style="rounded=1;whiteSpace=wrap;html=1;fillColor=#dae8fc;strokeColor=#6c8ebf;" vertex="1" parent="1">
          <mxGeometry x="250" y="800" width="140" height="60" as="geometry" />
        </mxCell>
        <!-- Діяльність 8: Надсилання підтвердження -->
        <mxCell id="act2_8" value="Надіслати підтвердження" style="rounded=1;whiteSpace=wrap;html=1;fillColor=#dae8fc;strokeColor=#6c8ebf;" vertex="1" parent="1">
          <mxGeometry x="430" y="800" width="140" height="60" as="geometry" />
        </mxCell>
        <!-- Стан синхронізації 2 -->
        <mxCell id="sync2_2" value="" style="shape=line;html=1;strokeWidth=6;strokeColor=#000000;" vertex="1" parent="1">
          <mxGeometry x="350" y="900" width="100" height="10" as="geometry" />
        </mxCell>
        <!-- Кінцевий стан -->
        <mxCell id="end2" value="" style="ellipse;whiteSpace=wrap;html=1;aspect=fixed;fillColor=#000000;" vertex="1" parent="1">
          <mxGeometry x="390" y="950" width="20" height="20" as="geometry" />
        </mxCell>
        <mxCell id="end2_outer" value="" style="ellipse;whiteSpace=wrap;html=1;aspect=fixed;fillColor=none;strokeColor=#000000;" vertex="1" parent="1">
          <mxGeometry x="385" y="945" width="30" height="30" as="geometry" />
        </mxCell>
        <!-- Переходи для діаграми 2 -->
        <mxCell id="edge2_1" value="" style="edgeStyle=orthogonalEdgeStyle;rounded=0;orthogonalLoop=1;jettySize=auto;html=1;" edge="1" parent="1" source="start2" target="act2_1">
          <mxGeometry relative="1" as="geometry" />
        </mxCell>
        <mxCell id="edge2_2" value="" style="edgeStyle=orthogonalEdgeStyle;rounded=0;orthogonalLoop=1;jettySize=auto;html=1;" edge="1" parent="1" source="act2_1" target="act2_2">
          <mxGeometry relative="1" as="geometry" />
        </mxCell>
        <mxCell id="edge2_3" value="" style="edgeStyle=orthogonalEdgeStyle;rounded=0;orthogonalLoop=1;jettySize=auto;html=1;" edge="1" parent="1" source="act2_2" target="dec2_1">
          <mxGeometry relative="1" as="geometry" />
        </mxCell>
        <mxCell id="edge2_4" value="[екскурсію обрано]" style="edgeStyle=orthogonalEdgeStyle;rounded=0;orthogonalLoop=1;jettySize=auto;html=1;" edge="1" parent="1" source="dec2_1" target="act2_3">
          <mxGeometry relative="1" as="geometry" />
        </mxCell>
        <mxCell id="edge2_5" value="" style="edgeStyle=orthogonalEdgeStyle;rounded=0;orthogonalLoop=1;jettySize=auto;html=1;" edge="1" parent="1" source="act2_3" target="dec2_2">
          <mxGeometry relative="1" as="geometry" />
        </mxCell>
        <mxCell id="edge2_6" value="[недоступна]" style="edgeStyle=orthogonalEdgeStyle;rounded=0;orthogonalLoop=1;jettySize=auto;html=1;" edge="1" parent="1" source="dec2_2" target="act2_4">
          <mxGeometry relative="1" as="geometry" />
        </mxCell>
        <mxCell id="edge2_7" value="[доступна]" style="edgeStyle=orthogonalEdgeStyle;rounded=0;orthogonalLoop=1;jettySize=auto;html=1;" edge="1" parent="1" source="dec2_2" target="act2_5">
          <mxGeometry relative="1" as="geometry" />
        </mxCell>
        <mxCell id="edge2_8" value="" style="edgeStyle=orthogonalEdgeStyle;rounded=0;orthogonalLoop=1;jettySize=auto;html=1;" edge="1" parent="1" source="act2_5" target="act2_6">
          <mxGeometry relative="1" as="geometry" />
        </mxCell>
        <mxCell id="edge2_9" value="" style="edgeStyle=orthogonalEdgeStyle;rounded=0;orthogonalLoop=1;jettySize=auto;html=1;" edge="1" parent="1" source="act2_6" target="sync2_1">
          <mxGeometry relative="1" as="geometry" />
        </mxCell>
        <mxCell id="edge2_10" value="" style="edgeStyle=orthogonalEdgeStyle;rounded=0;orthogonalLoop=1;jettySize=auto;html=1;" edge="1" parent="1" source="sync2_1" target="act2_7">
          <mxGeometry relative="1" as="geometry" />
        </mxCell>
        <mxCell id="edge2_11" value="" style="edgeStyle=orthogonalEdgeStyle;rounded=0;orthogonalLoop=1;jettySize=auto;html=1;" edge="1" parent="1" source="sync2_1" target="act2_8">
          <mxGeometry relative="1" as="geometry" />
        </mxCell>
        <mxCell id="edge2_12" value="" style="edgeStyle=orthogonalEdgeStyle;rounded=0;orthogonalLoop=1;jettySize=auto;html=1;" edge="1" parent="1" source="act2_7" target="sync2_2">
          <mxGeometry relative="1" as="geometry" />
        </mxCell>
        <mxCell id="edge2_13" value="" style="edgeStyle=orthogonalEdgeStyle;rounded=0;orthogonalLoop=1;jettySize=auto;html=1;" edge="1" parent="1" source="act2_8" target="sync2_2">
          <mxGeometry relative="1" as="geometry" />
        </mxCell>
        <mxCell id="edge2_14" value="" style="edgeStyle=orthogonalEdgeStyle;rounded=0;orthogonalLoop=1;jettySize=auto;html=1;" edge="1" parent="1" source="sync2_2" target="end2">
          <mxGeometry relative="1" as="geometry" />
        </mxCell>
        <!-- Петля для повторного вибору екскурсії -->
        <mxCell id="edge2_15" value="[змінити вибір]" style="edgeStyle=orthogonalEdgeStyle;rounded=0;orthogonalLoop=1;jettySize=auto;html=1;exitX=0;exitY=0.5;exitDx=0;exitDy=0;entryX=0;entryY=0.5;entryDx=0;entryDy=0;" edge="1" parent="1" source="dec2_1" target="act2_2">
          <mxGeometry relative="1" as="geometry">
            <Array as="points">
              <mxPoint x="290" y="320" />
              <mxPoint x="290" y="230" />
            </Array>
          </mxGeometry>
        </mxCell>
        <!-- Повернення до вибору після повідомлення про недоступність -->
        <mxCell id="edge2_16" value="" style="edgeStyle=orthogonalEdgeStyle;rounded=0;orthogonalLoop=1;jettySize=auto;html=1;exitX=0.5;exitY=0;exitDx=0;exitDy=0;entryX=1;entryY=0.5;entryDx=0;entryDy=0;" edge="1" parent="1" source="act2_4" target="act2_2">
          <mxGeometry relative="1" as="geometry">
            <Array as="points">
              <mxPoint x="630" y="230" />
            </Array>
          </mxGeometry>
        </mxCell>
      </root>
    </mxGraphModel>
  </diagram>
  <diagram name="Керування експонатами" id="g9In95JcN_fo2t0WVJc0">
    <mxGraphModel dx="1426" dy="743" grid="1" gridSize="10" guides="1" tooltips="1" connect="1" arrows="1" fold="1" page="1" pageScale="1" pageWidth="827" pageHeight="1169" math="0" shadow="0">
      <root>
        <mxCell id="0" />
        <mxCell id="1" parent="0" />
        <mxCell id="start3" value="" style="ellipse;whiteSpace=wrap;html=1;aspect=fixed;fillColor=#000000;" parent="1" vertex="1">
          <mxGeometry x="390" y="40" width="20" height="20" as="geometry" />
        </mxCell>
        <mxCell id="act3_1" value="Авторизуватися як адміністратор" style="rounded=1;whiteSpace=wrap;html=1;fillColor=#dae8fc;strokeColor=#6c8ebf;" parent="1" vertex="1">
          <mxGeometry x="310" y="100" width="180" height="60" as="geometry" />
        </mxCell>
        <mxCell id="dec3_1" value="" style="rhombus;whiteSpace=wrap;html=1;fillColor=#fff2cc;strokeColor=#d6b656;" parent="1" vertex="1">
          <mxGeometry x="380" y="200" width="40" height="40" as="geometry" />
        </mxCell>
        <mxCell id="act3_2" value="Повідомити про помилку авторизації" style="rounded=1;whiteSpace=wrap;html=1;fillColor=#f8cecc;strokeColor=#b85450;" parent="1" vertex="1">
          <mxGeometry x="570" y="190" width="160" height="60" as="geometry" />
        </mxCell>
        <mxCell id="act3_3" value="Вибрати операцію з експонатом" style="rounded=1;whiteSpace=wrap;html=1;fillColor=#dae8fc;strokeColor=#6c8ebf;" parent="1" vertex="1">
          <mxGeometry x="310" y="290" width="180" height="60" as="geometry" />
        </mxCell>
        <mxCell id="dec3_2" value="" style="rhombus;whiteSpace=wrap;html=1;fillColor=#fff2cc;strokeColor=#d6b656;" parent="1" vertex="1">
          <mxGeometry x="380" y="390" width="40" height="40" as="geometry" />
        </mxCell>
        <mxCell id="act3_4" value="Додати новий експонат" style="rounded=1;whiteSpace=wrap;html=1;fillColor=#d5e8d4;strokeColor=#82b366;" parent="1" vertex="1">
          <mxGeometry x="150" y="480" width="140" height="60" as="geometry" />
        </mxCell>
        <mxCell id="act3_5" value="Редагувати експонат" style="rounded=1;whiteSpace=wrap;html=1;fillColor=#d5e8d4;strokeColor=#82b366;" parent="1" vertex="1">
          <mxGeometry x="330" y="480" width="140" height="60" as="geometry" />
        </mxCell>
        <mxCell id="act3_6" value="Видалити експонат" style="rounded=1;whiteSpace=wrap;html=1;fillColor=#d5e8d4;strokeColor=#82b366;" parent="1" vertex="1">
          <mxGeometry x="510" y="480" width="140" height="60" as="geometry" />
        </mxCell>
        <mxCell id="sync3_1" value="" style="shape=line;html=1;strokeWidth=6;strokeColor=#000000;" parent="1" vertex="1">
          <mxGeometry x="340" y="580" width="120" height="10" as="geometry" />
        </mxCell>
        <mxCell id="act3_7" value="Валідувати дані експонату" style="rounded=1;whiteSpace=wrap;html=1;fillColor=#dae8fc;strokeColor=#6c8ebf;" parent="1" vertex="1">
          <mxGeometry x="250" y="630" width="160" height="60" as="geometry" />
        </mxCell>
        <mxCell id="act3_8" value="Оновити базу даних" style="rounded=1;whiteSpace=wrap;html=1;fillColor=#dae8fc;strokeColor=#6c8ebf;" parent="1" vertex="1">
          <mxGeometry x="440" y="630" width="160" height="60" as="geometry" />
        </mxCell>
        <mxCell id="sync3_2" value="" style="shape=line;html=1;strokeWidth=6;strokeColor=#000000;" parent="1" vertex="1">
          <mxGeometry x="340" y="730" width="120" height="10" as="geometry" />
        </mxCell>
        <mxCell id="act3_9" value="Зафіксувати операцію в журналі" style="rounded=1;whiteSpace=wrap;html=1;fillColor=#dae8fc;strokeColor=#6c8ebf;" parent="1" vertex="1">
          <mxGeometry x="320" y="770" width="160" height="60" as="geometry" />
        </mxCell>
        <mxCell id="dec3_3" value="" style="rhombus;whiteSpace=wrap;html=1;fillColor=#fff2cc;strokeColor=#d6b656;" parent="1" vertex="1">
          <mxGeometry x="380" y="870" width="40" height="40" as="geometry" />
        </mxCell>
        <mxCell id="end3" value="" style="ellipse;whiteSpace=wrap;html=1;aspect=fixed;fillColor=#000000;" parent="1" vertex="1">
          <mxGeometry x="390" y="950" width="20" height="20" as="geometry" />
        </mxCell>
        <mxCell id="end3_outer" value="" style="ellipse;whiteSpace=wrap;html=1;aspect=fixed;fillColor=none;strokeColor=#000000;" parent="1" vertex="1">
          <mxGeometry x="385" y="945" width="30" height="30" as="geometry" />
        </mxCell>
        <mxCell id="edge3_1" value="" style="edgeStyle=orthogonalEdgeStyle;rounded=0;orthogonalLoop=1;jettySize=auto;html=1;" parent="1" source="start3" target="act3_1" edge="1">
          <mxGeometry relative="1" as="geometry" />
        </mxCell>
        <mxCell id="edge3_2" value="" style="edgeStyle=orthogonalEdgeStyle;rounded=0;orthogonalLoop=1;jettySize=auto;html=1;" parent="1" source="act3_1" target="dec3_1" edge="1">
          <mxGeometry relative="1" as="geometry" />
        </mxCell>
        <mxCell id="edge3_3" value="[авторизація не вдалася]" style="edgeStyle=orthogonalEdgeStyle;rounded=0;orthogonalLoop=1;jettySize=auto;html=1;" parent="1" source="dec3_1" target="act3_2" edge="1">
          <mxGeometry relative="1" as="geometry" />
        </mxCell>
        <mxCell id="edge3_4" value="[успішна авторизація]" style="edgeStyle=orthogonalEdgeStyle;rounded=0;orthogonalLoop=1;jettySize=auto;html=1;" parent="1" source="dec3_1" target="act3_3" edge="1">
          <mxGeometry relative="1" as="geometry" />
        </mxCell>
        <mxCell id="edge3_5" value="" style="edgeStyle=orthogonalEdgeStyle;rounded=0;orthogonalLoop=1;jettySize=auto;html=1;" parent="1" source="act3_3" target="dec3_2" edge="1">
          <mxGeometry relative="1" as="geometry" />
        </mxCell>
        <mxCell id="edge3_6" value="[додати]" style="edgeStyle=orthogonalEdgeStyle;rounded=0;orthogonalLoop=1;jettySize=auto;html=1;" parent="1" source="dec3_2" target="act3_4" edge="1">
          <mxGeometry relative="1" as="geometry" />
        </mxCell>
        <mxCell id="edge3_7" value="[редагувати]" style="edgeStyle=orthogonalEdgeStyle;rounded=0;orthogonalLoop=1;jettySize=auto;html=1;" parent="1" source="dec3_2" target="act3_5" edge="1">
          <mxGeometry relative="1" as="geometry" />
        </mxCell>
        <mxCell id="edge3_8" value="[видалити]" style="edgeStyle=orthogonalEdgeStyle;rounded=0;orthogonalLoop=1;jettySize=auto;html=1;" parent="1" source="dec3_2" target="act3_6" edge="1">
          <mxGeometry relative="1" as="geometry" />
        </mxCell>
        <mxCell id="edge3_9" value="" style="edgeStyle=orthogonalEdgeStyle;rounded=0;orthogonalLoop=1;jettySize=auto;html=1;" parent="1" source="act3_4" target="sync3_1" edge="1">
          <mxGeometry relative="1" as="geometry">
            <Array as="points">
              <mxPoint x="220" y="560" />
              <mxPoint x="400" y="560" />
            </Array>
          </mxGeometry>
        </mxCell>
        <mxCell id="edge3_10" value="" style="edgeStyle=orthogonalEdgeStyle;rounded=0;orthogonalLoop=1;jettySize=auto;html=1;" parent="1" source="act3_5" target="sync3_1" edge="1">
          <mxGeometry relative="1" as="geometry" />
        </mxCell>
        <mxCell id="edge3_11" value="" style="edgeStyle=orthogonalEdgeStyle;rounded=0;orthogonalLoop=1;jettySize=auto;html=1;" parent="1" source="act3_6" target="sync3_1" edge="1">
          <mxGeometry relative="1" as="geometry">
            <Array as="points">
              <mxPoint x="580" y="560" />
              <mxPoint x="400" y="560" />
            </Array>
          </mxGeometry>
        </mxCell>
        <mxCell id="edge3_12" value="" style="edgeStyle=orthogonalEdgeStyle;rounded=0;orthogonalLoop=1;jettySize=auto;html=1;" parent="1" source="sync3_1" target="act3_7" edge="1">
          <mxGeometry relative="1" as="geometry" />
        </mxCell>
        <mxCell id="edge3_13" value="" style="edgeStyle=orthogonalEdgeStyle;rounded=0;orthogonalLoop=1;jettySize=auto;html=1;" parent="1" source="sync3_1" target="act3_8" edge="1">
          <mxGeometry relative="1" as="geometry" />
        </mxCell>
        <mxCell id="edge3_14" value="" style="edgeStyle=orthogonalEdgeStyle;rounded=0;orthogonalLoop=1;jettySize=auto;html=1;" parent="1" source="act3_7" target="sync3_2" edge="1">
          <mxGeometry relative="1" as="geometry" />
        </mxCell>
        <mxCell id="edge3_15" value="" style="edgeStyle=orthogonalEdgeStyle;rounded=0;orthogonalLoop=1;jettySize=auto;html=1;" parent="1" source="act3_8" target="sync3_2" edge="1">
          <mxGeometry relative="1" as="geometry" />
        </mxCell>
        <mxCell id="edge3_16" value="" style="edgeStyle=orthogonalEdgeStyle;rounded=0;orthogonalLoop=1;jettySize=auto;html=1;" parent="1" source="sync3_2" target="act3_9" edge="1">
          <mxGeometry relative="1" as="geometry" />
        </mxCell>
        <mxCell id="edge3_17" value="" style="edgeStyle=orthogonalEdgeStyle;rounded=0;orthogonalLoop=1;jettySize=auto;html=1;" parent="1" source="act3_9" target="dec3_3" edge="1">
          <mxGeometry relative="1" as="geometry" />
        </mxCell>
        <mxCell id="edge3_18" value="[завершити]" style="edgeStyle=orthogonalEdgeStyle;rounded=0;orthogonalLoop=1;jettySize=auto;html=1;" parent="1" source="dec3_3" target="end3" edge="1">
          <mxGeometry relative="1" as="geometry" />
        </mxCell>
        <mxCell id="edge3_19" value="[виконати іншу операцію]" style="edgeStyle=orthogonalEdgeStyle;rounded=0;orthogonalLoop=1;jettySize=auto;html=1;exitX=0;exitY=0.5;exitDx=0;exitDy=0;entryX=0;entryY=0.5;entryDx=0;entryDy=0;" parent="1" source="dec3_3" target="act3_3" edge="1">
          <mxGeometry relative="1" as="geometry">
            <Array as="points">
              <mxPoint x="130" y="890" />
              <mxPoint x="130" y="320" />
            </Array>
          </mxGeometry>
        </mxCell>
        <mxCell id="edge3_20" value="" style="edgeStyle=orthogonalEdgeStyle;rounded=0;orthogonalLoop=1;jettySize=auto;html=1;exitX=0.5;exitY=0;exitDx=0;exitDy=0;entryX=1;entryY=0.5;entryDx=0;entryDy=0;" parent="1" source="act3_2" target="act3_1" edge="1">
          <mxGeometry relative="1" as="geometry">
            <Array as="points">
              <mxPoint x="650" y="130" />
            </Array>
          </mxGeometry>
        </mxCell>
      </root>
    </mxGraphModel>
  </diagram>
  <diagram id="dfT0xyx4jqtY65i5ULBX" name="Сторінка-10">
    <mxGraphModel dx="1426" dy="743" grid="1" gridSize="10" guides="1" tooltips="1" connect="1" arrows="1" fold="1" page="1" pageScale="1" pageWidth="827" pageHeight="1169" math="0" shadow="0">
      <root>
        <mxCell id="0" />
        <mxCell id="1" parent="0" />
        <mxCell id="5ECcMFoLyydd1yH75Fgg-1" value="Діаграма компонентів системи управління музеєм" style="text;html=1;strokeColor=none;fillColor=none;align=center;verticalAlign=middle;whiteSpace=wrap;rounded=0;fontSize=16;fontStyle=1;" parent="1" vertex="1">
          <mxGeometry x="500" y="110" width="400" height="30" as="geometry" />
        </mxCell>
        <mxCell id="5ECcMFoLyydd1yH75Fgg-2" value="" style="shape=component;align=left;spacingLeft=36;rounded=0;shadow=0;comic=0;labelBackgroundColor=none;strokeWidth=1;fontFamily=Verdana;fontSize=12;html=1;fillColor=#dae8fc;strokeColor=#6c8ebf;" parent="1" vertex="1">
          <mxGeometry x="180" y="170" width="300" height="240" as="geometry" />
        </mxCell>
        <mxCell id="5ECcMFoLyydd1yH75Fgg-3" value="Презентаційний шар" style="text;html=1;strokeColor=none;fillColor=none;align=left;verticalAlign=top;whiteSpace=wrap;rounded=0;fontSize=12;fontStyle=1;" parent="1" vertex="1">
          <mxGeometry x="200" y="180" width="140" height="40" as="geometry" />
        </mxCell>
        <mxCell id="5ECcMFoLyydd1yH75Fgg-4" value="Класи:&#xa;• MainWindow&#xa;• TicketPurchaseForm&#xa;• ExcursionBookingForm&#xa;• ExhibitBrowserForm&#xa;• AdminPanel&#xa;• LoginDialog&#xa;• ReportViewer&#xa;• NavigationController&#xa;• UIValidator&#xa;• MessageHandler" style="text;html=1;strokeColor=none;fillColor=none;align=left;verticalAlign=top;whiteSpace=wrap;rounded=0;fontSize=10;" parent="1" vertex="1">
          <mxGeometry x="220" y="220" width="250" height="180" as="geometry" />
        </mxCell>
        <mxCell id="5ECcMFoLyydd1yH75Fgg-5" value="" style="shape=component;align=left;spacingLeft=36;rounded=0;shadow=0;comic=0;labelBackgroundColor=none;strokeWidth=1;fontFamily=Verdana;fontSize=12;html=1;fillColor=#d5e8d4;strokeColor=#82b366;" parent="1" vertex="1">
          <mxGeometry x="550" y="170" width="300" height="280" as="geometry" />
        </mxCell>
        <mxCell id="5ECcMFoLyydd1yH75Fgg-6" value="Бізнес-логіка" style="text;html=1;strokeColor=none;fillColor=none;align=left;verticalAlign=top;whiteSpace=wrap;rounded=0;fontSize=12;fontStyle=1;" parent="1" vertex="1">
          <mxGeometry x="570" y="180" width="150" height="40" as="geometry" />
        </mxCell>
        <mxCell id="5ECcMFoLyydd1yH75Fgg-7" value="Класи:&#xa;• TicketManager&#xa;• ExcursionManager&#xa;• ExhibitManager&#xa;• UserManager&#xa;• PaymentProcessor&#xa;• BookingEngine&#xa;• InventoryManager&#xa;• ReportGenerator&#xa;• NotificationService&#xa;• ValidationService&#xa;• SecurityManager&#xa;• PriceCalculator&#xa;• ScheduleManager" style="text;html=1;strokeColor=none;fillColor=none;align=left;verticalAlign=top;whiteSpace=wrap;rounded=0;fontSize=10;" parent="1" vertex="1">
          <mxGeometry x="590" y="220" width="250" height="220" as="geometry" />
        </mxCell>
        <mxCell id="5ECcMFoLyydd1yH75Fgg-8" value="" style="shape=component;align=left;spacingLeft=36;rounded=0;shadow=0;comic=0;labelBackgroundColor=none;strokeWidth=1;fontFamily=Verdana;fontSize=12;html=1;fillColor=#fff2cc;strokeColor=#d6b656;" parent="1" vertex="1">
          <mxGeometry x="920" y="170" width="280" height="260" as="geometry" />
        </mxCell>
        <mxCell id="5ECcMFoLyydd1yH75Fgg-9" value="Шар доступу до даних" style="text;html=1;strokeColor=none;fillColor=none;align=left;verticalAlign=top;whiteSpace=wrap;rounded=0;fontSize=12;fontStyle=1;" parent="1" vertex="1">
          <mxGeometry x="950" y="180" width="150" height="40" as="geometry" />
        </mxCell>
        <mxCell id="5ECcMFoLyydd1yH75Fgg-10" value="Класи:&#xa;• DatabaseConnection&#xa;• TicketDAO&#xa;• ExcursionDAO&#xa;• ExhibitDAO&#xa;• UserDAO&#xa;• PaymentDAO&#xa;• BookingDAO&#xa;• ReportDAO&#xa;• ConfigurationDAO&#xa;• LogDAO&#xa;• BackupManager&#xa;• ConnectionPool" style="text;html=1;strokeColor=none;fillColor=none;align=left;verticalAlign=top;whiteSpace=wrap;rounded=0;fontSize=10;" parent="1" vertex="1">
          <mxGeometry x="960" y="220" width="230" height="200" as="geometry" />
        </mxCell>
        <mxCell id="5ECcMFoLyydd1yH75Fgg-20" value="" style="endArrow=open;endSize=12;dashed=1;html=1;rounded=0;exitX=1;exitY=0.5;exitDx=0;exitDy=0;entryX=0;entryY=0.5;entryDx=0;entryDy=0;" parent="1" source="5ECcMFoLyydd1yH75Fgg-2" target="5ECcMFoLyydd1yH75Fgg-5" edge="1">
          <mxGeometry width="160" relative="1" as="geometry">
            <mxPoint x="500" y="290" as="sourcePoint" />
            <mxPoint x="660" y="290" as="targetPoint" />
          </mxGeometry>
        </mxCell>
        <mxCell id="5ECcMFoLyydd1yH75Fgg-21" value="&lt;&lt;uses&gt;&gt;" style="text;html=1;strokeColor=none;fillColor=none;align=center;verticalAlign=middle;whiteSpace=wrap;rounded=0;fontSize=10;" parent="1" vertex="1">
          <mxGeometry x="490" y="270" width="50" height="20" as="geometry" />
        </mxCell>
        <mxCell id="5ECcMFoLyydd1yH75Fgg-22" value="" style="endArrow=open;endSize=12;dashed=1;html=1;rounded=0;exitX=1;exitY=0.5;exitDx=0;exitDy=0;entryX=0;entryY=0.5;entryDx=0;entryDy=0;" parent="1" source="5ECcMFoLyydd1yH75Fgg-5" target="5ECcMFoLyydd1yH75Fgg-8" edge="1">
          <mxGeometry width="160" relative="1" as="geometry">
            <mxPoint x="850" y="310" as="sourcePoint" />
            <mxPoint x="920" y="310" as="targetPoint" />
          </mxGeometry>
        </mxCell>
        <mxCell id="5ECcMFoLyydd1yH75Fgg-23" value="&lt;&lt;uses&gt;&gt;" style="text;html=1;strokeColor=none;fillColor=none;align=center;verticalAlign=middle;whiteSpace=wrap;rounded=0;fontSize=10;" parent="1" vertex="1">
          <mxGeometry x="860" y="290" width="50" height="20" as="geometry" />
        </mxCell>
        <mxCell id="5ECcMFoLyydd1yH75Fgg-36" value="" style="rounded=0;whiteSpace=wrap;html=1;fillColor=#f5f5f5;strokeColor=#666666;" parent="1" vertex="1">
          <mxGeometry x="180" y="480" width="400" height="120" as="geometry" />
        </mxCell>
        <mxCell id="5ECcMFoLyydd1yH75Fgg-37" value="Легенда:" style="text;html=1;strokeColor=none;fillColor=none;align=left;verticalAlign=top;whiteSpace=wrap;rounded=0;fontSize=12;fontStyle=1;" parent="1" vertex="1">
          <mxGeometry x="190" y="490" width="80" height="20" as="geometry" />
        </mxCell>
        <mxCell id="5ECcMFoLyydd1yH75Fgg-38" value="• &amp;lt;&amp;gt; - головна програма&lt;br&gt;• &amp;lt;&amp;gt; - підсистема&lt;br&gt;• ----&amp;gt; залежність (uses)" style="text;html=1;strokeColor=none;fillColor=none;align=left;verticalAlign=top;whiteSpace=wrap;rounded=0;fontSize=10;" parent="1" vertex="1">
          <mxGeometry x="190" y="510" width="380" height="80" as="geometry" />
        </mxCell>
        <mxCell id="5ECcMFoLyydd1yH75Fgg-39" value="" style="rounded=0;whiteSpace=wrap;html=1;fillColor=#fff2cc;strokeColor=#d6b656;" parent="1" vertex="1">
          <mxGeometry x="620" y="480" width="580" height="120" as="geometry" />
        </mxCell>
        <mxCell id="5ECcMFoLyydd1yH75Fgg-40" value="Архітектура системи:" style="text;html=1;strokeColor=none;fillColor=none;align=left;verticalAlign=top;whiteSpace=wrap;rounded=0;fontSize=12;fontStyle=1;" parent="1" vertex="1">
          <mxGeometry x="630" y="490" width="150" height="20" as="geometry" />
        </mxCell>
        <mxCell id="5ECcMFoLyydd1yH75Fgg-41" value="Система побудована за принципом багатошарової архітектури:&lt;br&gt;1. Презентаційний шар - інтерфейс користувача&lt;br&gt;2. Бізнес-логіка - основна функціональність системи&lt;br&gt;3. Шар доступу до даних - робота з базою даних" style="text;html=1;strokeColor=none;fillColor=none;align=left;verticalAlign=top;whiteSpace=wrap;rounded=0;fontSize=10;" parent="1" vertex="1">
          <mxGeometry x="630" y="510" width="560" height="80" as="geometry" />
        </mxCell>
      </root>
    </mxGraphModel>
  </diagram>
</mxfile>
